<svg xmlns="http://www.w3.org/2000/svg" width="31" height="28" viewBox="0 0 31 28"><defs><style>.a,.b,.c{fill:#b6b6b6;}.b{opacity:0.64;}.c{opacity:0.32;}</style></defs><path class="a" d="M499.63,820.88a3.83,3.83,0,0,0,1.29-.23c.45-.15.89-.31,1.33-.49l11.68-4.65a2,2,0,0,0,.86-.66,1.55,1.55,0,0,0,.34-1,1.95,1.95,0,0,0-2-2,3,3,0,0,0-1,.19l-.9.36-11.69,4.64-11.7-4.64-.89-.36a2.92,2.92,0,0,0-1-.19,1.92,1.92,0,0,0-1.39.56,2,2,0,0,0-.56,1.44,1.6,1.6,0,0,0,.33,1,1.93,1.93,0,0,0,.87.66L497,820.16c.44.18.88.34,1.32.49A3.78,3.78,0,0,0,499.63,820.88Z" transform="translate(-484.13 -792.88)"/><path class="b" d="M499.63,811.88a3.83,3.83,0,0,0,1.29-.23c.45-.15.89-.31,1.33-.49l11.68-4.65a2,2,0,0,0,.86-.66,1.55,1.55,0,0,0,.34-1,1.95,1.95,0,0,0-2-2,3,3,0,0,0-1,.19l-.9.36-11.69,4.64-11.7-4.64-.89-.36a2.92,2.92,0,0,0-1-.19,1.92,1.92,0,0,0-1.39.56,2,2,0,0,0-.56,1.44,1.6,1.6,0,0,0,.33,1,1.93,1.93,0,0,0,.87.66L497,811.16c.44.18.88.34,1.32.49A3.78,3.78,0,0,0,499.63,811.88Z" transform="translate(-484.13 -792.88)"/><path class="c" d="M499.63,801.88a3.83,3.83,0,0,0,1.29-.23c.45-.15.89-.31,1.33-.49l11.68-4.65a2,2,0,0,0,.86-.66,1.55,1.55,0,0,0,.34-1,1.95,1.95,0,0,0-2-2,3,3,0,0,0-1,.19l-.9.36-11.69,4.64-11.7-4.64-.89-.36a2.92,2.92,0,0,0-1-.19,1.92,1.92,0,0,0-1.39.56,2,2,0,0,0-.56,1.44,1.6,1.6,0,0,0,.33,1,1.93,1.93,0,0,0,.87.66L497,801.16c.44.18.88.34,1.32.49A3.78,3.78,0,0,0,499.63,801.88Z" transform="translate(-484.13 -792.88)"/></svg>