<?xml version="1.0" encoding="UTF-8"?>
<svg width="296px" height="172px" viewBox="0 0 296 172" version="1.1" xmlns="http://www.w3.org/2000/svg" xmlns:xlink="http://www.w3.org/1999/xlink">
    <title>chat s</title>
    <defs>
        <linearGradient x1="50%" y1="0%" x2="50%" y2="100%" id="linearGradient-1">
            <stop stop-color="#FAFAFC" offset="0%"></stop>
            <stop stop-color="#F2F2F7" offset="100%"></stop>
        </linearGradient>
        <linearGradient x1="50%" y1="0%" x2="50%" y2="100%" id="linearGradient-2">
            <stop stop-color="#6DBEF4" offset="0%"></stop>
            <stop stop-color="#3B8AE5" offset="100%"></stop>
        </linearGradient>
        <path d="M268,2.84217094e-14 C277.941125,2.65955543e-14 286,8.0588745 286,18 L286,118 C286,127.941125 277.941125,136 268,136 L258.329489,136.000498 C257.990843,142.794019 259.951269,149.559786 263.977131,155.163522 L263.977131,155.163522 L268.895818,162.010011 L229.984,136 L18,136 C8.0588745,136 1.21743675e-15,127.941125 0,118 L0,18 C-1.21743675e-15,8.0588745 8.0588745,3.02478646e-14 18,2.84217094e-14 L268,2.84217094e-14 Z" id="path-3"></path>
        <filter x="-5.8%" y="-7.1%" width="111.5%" height="119.7%" filterUnits="objectBoundingBox" id="filter-4">
            <feMorphology radius="4" operator="erode" in="SourceAlpha" result="shadowSpreadOuter1"></feMorphology>
            <feOffset dx="0" dy="18" in="shadowSpreadOuter1" result="shadowOffsetOuter1"></feOffset>
            <feGaussianBlur stdDeviation="6.5" in="shadowOffsetOuter1" result="shadowBlurOuter1"></feGaussianBlur>
            <feComposite in="shadowBlurOuter1" in2="SourceAlpha" operator="out" result="shadowBlurOuter1"></feComposite>
            <feColorMatrix values="0 0 0 0 0   0 0 0 0 0   0 0 0 0 0  0 0 0 0.16 0" type="matrix" in="shadowBlurOuter1"></feColorMatrix>
        </filter>
    </defs>
    <g id="Page-1" stroke="none" stroke-width="1" fill="none" fill-rule="evenodd">
        <g id="Apple-TV" transform="translate(-987.000000, -525.000000)">
            <g id="chat-s" transform="translate(992.000000, 525.000000)">
                <g id="Combined-Shape">
                    <use fill="black" fill-opacity="1" filter="url(#filter-4)" xlink:href="#path-3"></use>
                    <path stroke="url(#linearGradient-2)" stroke-width="2" d="M268,1 L18,1 C13.3055796,1 9.05557963,2.90278981 5.97918472,5.97918472 C2.90278981,9.05557963 1,13.3055796 1,18 L1,118 C1,122.69442 2.90278981,126.94442 5.97918472,130.020815 C9.05557963,133.09721 13.3055796,135 18,135 L230.287443,135 L264.864385,158.112429 L263.16499,155.746984 L262.84625,155.294877 C258.718319,149.325817 256.817327,142.150806 257.392622,135.000547 L267.999948,135 C272.69442,135 276.94442,133.09721 280.020815,130.020815 C283.09721,126.94442 285,122.69442 285,118 L285,18 C285,13.3055796 283.09721,9.05557963 280.020815,5.97918472 C276.94442,2.90278981 272.69442,1 268,1 Z" stroke-linejoin="square" fill="url(#linearGradient-1)" fill-rule="evenodd"></path>
                </g>
                <path d="M31.372,44.18 C32.44,44.18 33.403,44.021 34.261,43.703 C35.119,43.385 35.776,42.944 36.232,42.38 L36.232,42.38 L36.232,37.34 L31.246,37.34 L31.246,39.176 L33.712,39.176 L33.712,41.516 C33.472,41.744 33.172,41.915 32.812,42.029 C32.452,42.143 32.014,42.2 31.498,42.2 C30.838,42.2 30.277,42.038 29.815,41.714 C29.353,41.39 29.005,40.916 28.771,40.292 C28.537,39.668 28.42,38.912 28.42,38.024 L28.42,38.024 L28.42,37.142 C28.42,36.254 28.528,35.501 28.744,34.883 C28.96,34.265 29.281,33.797 29.707,33.479 C30.133,33.161 30.652,33.002 31.264,33.002 C31.996,33.002 32.566,33.179 32.974,33.533 C33.382,33.887 33.652,34.448 33.784,35.216 L33.784,35.216 L36.232,35.216 C36.076,33.836 35.569,32.792 34.711,32.084 C33.853,31.376 32.68,31.022 31.192,31.022 C30.04,31.022 29.062,31.289 28.258,31.823 C27.454,32.357 26.851,33.092 26.449,34.028 C26.047,34.964 25.852,36.02 25.864,37.196 L25.864,37.196 L25.882,38.312 C25.894,39.5 26.128,40.538 26.584,41.426 C27.04,42.314 27.679,42.995 28.501,43.469 C29.323,43.943 30.28,44.18 31.372,44.18 Z M42.3698484,44.18 C43.2458484,44.18 44.0228484,43.982 44.7008484,43.586 C45.3788484,43.19 45.9038484,42.629 46.2758484,41.903 C46.6478484,41.177 46.8338484,40.322 46.8338484,39.338 L46.8338484,39.338 L46.8338484,39.23 C46.8338484,38.234 46.6508484,37.367 46.2848484,36.629 C45.9188484,35.891 45.3968484,35.321 44.7188484,34.919 C44.0408484,34.517 43.2518484,34.316 42.3518484,34.316 C41.3918484,34.316 40.5728484,34.532 39.8948484,34.964 C39.2168484,35.396 38.7038484,35.981 38.3558484,36.719 C38.0078484,37.457 37.8458484,38.27 37.8698484,39.158 L37.8698484,39.158 L37.8698484,39.5 C37.8938484,40.448 38.0948484,41.273 38.4728484,41.975 C38.8508484,42.677 39.3728484,43.22 40.0388484,43.604 C40.7048484,43.988 41.4818484,44.18 42.3698484,44.18 Z M42.3698484,42.272 C41.9378484,42.272 41.5658484,42.158 41.2538484,41.93 C40.9418484,41.702 40.7048484,41.369 40.5428484,40.931 C40.3808484,40.493 40.2998484,39.962 40.2998484,39.338 L40.2998484,39.338 L40.2998484,38.96 C40.3238484,38.372 40.4198484,37.871 40.5878484,37.457 C40.7558484,37.043 40.9898484,36.734 41.2898484,36.53 C41.5898484,36.326 41.9438484,36.224 42.3518484,36.224 C42.7838484,36.224 43.1558484,36.338 43.4678484,36.566 C43.7798484,36.794 44.0168484,37.127 44.1788484,37.565 C44.3408484,38.003 44.4218484,38.534 44.4218484,39.158 L44.4218484,39.158 L44.4218484,39.392 C44.4218484,40.016 44.3378484,40.541 44.1698484,40.967 C44.0018484,41.393 43.7678484,41.717 43.4678484,41.939 C43.1678484,42.161 42.8018484,42.272 42.3698484,42.272 Z M52.5396177,44.18 C53.4156177,44.18 54.1926177,43.982 54.8706177,43.586 C55.5486177,43.19 56.0736177,42.629 56.4456177,41.903 C56.8176177,41.177 57.0036177,40.322 57.0036177,39.338 L57.0036177,39.338 L57.0036177,39.23 C57.0036177,38.234 56.8206177,37.367 56.4546177,36.629 C56.0886177,35.891 55.5666177,35.321 54.8886177,34.919 C54.2106177,34.517 53.4216177,34.316 52.5216177,34.316 C51.5616177,34.316 50.7426177,34.532 50.0646177,34.964 C49.3866177,35.396 48.8736177,35.981 48.5256177,36.719 C48.1776177,37.457 48.0156177,38.27 48.0396177,39.158 L48.0396177,39.158 L48.0396177,39.5 C48.0636177,40.448 48.2646177,41.273 48.6426177,41.975 C49.0206177,42.677 49.5426177,43.22 50.2086177,43.604 C50.8746177,43.988 51.6516177,44.18 52.5396177,44.18 Z M52.5396177,42.272 C52.1076177,42.272 51.7356177,42.158 51.4236177,41.93 C51.1116177,41.702 50.8746177,41.369 50.7126177,40.931 C50.5506177,40.493 50.4696177,39.962 50.4696177,39.338 L50.4696177,39.338 L50.4696177,38.96 C50.4936177,38.372 50.5896177,37.871 50.7576177,37.457 C50.9256177,37.043 51.1596177,36.734 51.4596177,36.53 C51.7596177,36.326 52.1136177,36.224 52.5216177,36.224 C52.9536177,36.224 53.3256177,36.338 53.6376177,36.566 C53.9496177,36.794 54.1866177,37.127 54.3486177,37.565 C54.5106177,38.003 54.5916177,38.534 54.5916177,39.158 L54.5916177,39.158 L54.5916177,39.392 C54.5916177,40.016 54.5076177,40.541 54.3396177,40.967 C54.1716177,41.393 53.9376177,41.717 53.6376177,41.939 C53.3376177,42.161 52.9716177,42.272 52.5396177,42.272 Z M61.935387,44.18 C62.451387,44.18 62.916387,44.081 63.330387,43.883 C63.744387,43.685 64.101387,43.382 64.401387,42.974 L64.401387,42.974 L64.527387,44 L66.723387,44 L66.723387,30.5 L64.293387,30.5 L64.293387,35.378 C63.993387,35.018 63.645387,34.751 63.249387,34.577 C62.853387,34.403 62.421387,34.316 61.953387,34.316 C61.197387,34.316 60.537387,34.514 59.973387,34.91 C59.409387,35.306 58.974387,35.867 58.668387,36.593 C58.362387,37.319 58.209387,38.18 58.209387,39.176 C58.209387,40.196 58.365387,41.084 58.677387,41.84 C58.989387,42.596 59.424387,43.175 59.982387,43.577 C60.540387,43.979 61.191387,44.18 61.935387,44.18 Z M62.547387,42.254 C61.935387,42.254 61.467387,42.008 61.143387,41.516 C60.819387,41.024 60.657387,40.304 60.657387,39.356 L60.657387,39.356 L60.657387,38.924 C60.681387,38.048 60.858387,37.382 61.188387,36.926 C61.518387,36.47 61.977387,36.242 62.565387,36.242 C63.357387,36.242 63.933387,36.59 64.293387,37.286 L64.293387,37.286 L64.293387,41.21 C64.113387,41.558 63.879387,41.819 63.591387,41.993 C63.303387,42.167 62.955387,42.254 62.547387,42.254 Z M75.4711584,44 L75.4711584,40.22 L75.2371584,34.406 L78.7831584,44 L80.5111584,44 L84.0571584,34.388 L83.8051584,40.22 L83.8051584,44 L86.3431584,44 L86.3431584,31.202 L83.0311584,31.202 L79.6471584,40.724 L76.2631584,31.202 L72.9691584,31.202 L72.9691584,44 L75.4711584,44 Z M92.6251584,44.18 C93.5011584,44.18 94.2781584,43.982 94.9561584,43.586 C95.6341584,43.19 96.1591584,42.629 96.5311584,41.903 C96.9031584,41.177 97.0891584,40.322 97.0891584,39.338 L97.0891584,39.338 L97.0891584,39.23 C97.0891584,38.234 96.9061584,37.367 96.5401584,36.629 C96.1741584,35.891 95.6521584,35.321 94.9741584,34.919 C94.2961584,34.517 93.5071584,34.316 92.6071584,34.316 C91.6471584,34.316 90.8281584,34.532 90.1501584,34.964 C89.4721584,35.396 88.9591584,35.981 88.6111584,36.719 C88.2631584,37.457 88.1011584,38.27 88.1251584,39.158 L88.1251584,39.158 L88.1251584,39.5 C88.1491584,40.448 88.3501584,41.273 88.7281584,41.975 C89.1061584,42.677 89.6281584,43.22 90.2941584,43.604 C90.9601584,43.988 91.7371584,44.18 92.6251584,44.18 Z M92.6251584,42.272 C92.1931584,42.272 91.8211584,42.158 91.5091584,41.93 C91.1971584,41.702 90.9601584,41.369 90.7981584,40.931 C90.6361584,40.493 90.5551584,39.962 90.5551584,39.338 L90.5551584,39.338 L90.5551584,38.96 C90.5791584,38.372 90.6751584,37.871 90.8431584,37.457 C91.0111584,37.043 91.2451584,36.734 91.5451584,36.53 C91.8451584,36.326 92.1991584,36.224 92.6071584,36.224 C93.0391584,36.224 93.4111584,36.338 93.7231584,36.566 C94.0351584,36.794 94.2721584,37.127 94.4341584,37.565 C94.5961584,38.003 94.6771584,38.534 94.6771584,39.158 L94.6771584,39.158 L94.6771584,39.392 C94.6771584,40.016 94.5931584,40.541 94.4251584,40.967 C94.2571584,41.393 94.0231584,41.717 93.7231584,41.939 C93.4231584,42.161 93.0571584,42.272 92.6251584,42.272 Z M101.138928,44 L101.138928,37.7 C101.294928,37.328 101.534928,37.055 101.858928,36.881 C102.182928,36.707 102.590928,36.62 103.082928,36.62 C103.502928,36.62 103.802928,36.644 103.982928,36.692 L103.982928,36.692 L104.018928,34.424 C103.814928,34.352 103.550928,34.316 103.226928,34.316 C102.770928,34.316 102.362928,34.43 102.002928,34.658 C101.642928,34.886 101.330928,35.222 101.066928,35.666 L101.066928,35.666 L101.012928,34.496 L98.6909277,34.496 L98.6909277,44 L101.138928,44 Z M107.618772,44 L107.618772,37.268 C107.786772,36.932 108.017772,36.677 108.311772,36.503 C108.605772,36.329 108.944772,36.242 109.328772,36.242 C109.880772,36.242 110.279772,36.371 110.525772,36.629 C110.771772,36.887 110.894772,37.304 110.894772,37.88 L110.894772,37.88 L110.894772,44 L113.324772,44 L113.324772,37.808 C113.312772,36.644 113.057772,35.771 112.559772,35.189 C112.061772,34.607 111.314772,34.316 110.318772,34.316 C109.730772,34.316 109.208772,34.427 108.752772,34.649 C108.296772,34.871 107.900772,35.204 107.564772,35.648 L107.564772,35.648 L107.474772,34.496 L105.188772,34.496 L105.188772,44 L107.618772,44 Z M116.6546,33.254 C117.0626,33.254 117.3926,33.137 117.6446,32.903 C117.8966,32.669 118.0226,32.372 118.0226,32.012 C118.0226,31.652 117.8966,31.355 117.6446,31.121 C117.3926,30.887 117.0626,30.77 116.6546,30.77 C116.2346,30.77 115.9016,30.887 115.6556,31.121 C115.4096,31.355 115.2866,31.652 115.2866,32.012 C115.2866,32.384 115.4096,32.684 115.6556,32.912 C115.9016,33.14 116.2346,33.254 116.6546,33.254 Z M117.8786,44 L117.8786,34.496 L115.4306,34.496 L115.4306,44 L117.8786,44 Z M122.396482,44 L122.396482,37.268 C122.564482,36.932 122.795482,36.677 123.089482,36.503 C123.383482,36.329 123.722482,36.242 124.106482,36.242 C124.658482,36.242 125.057482,36.371 125.303482,36.629 C125.549482,36.887 125.672482,37.304 125.672482,37.88 L125.672482,37.88 L125.672482,44 L128.102482,44 L128.102482,37.808 C128.090482,36.644 127.835482,35.771 127.337482,35.189 C126.839482,34.607 126.092482,34.316 125.096482,34.316 C124.508482,34.316 123.986482,34.427 123.530482,34.649 C123.074482,34.871 122.678482,35.204 122.342482,35.648 L122.342482,35.648 L122.252482,34.496 L119.966482,34.496 L119.966482,44 L122.396482,44 Z M133.80831,47.744 C134.92431,47.744 135.82131,47.519 136.49931,47.069 C137.17731,46.619 137.65131,46.088 137.92131,45.476 C138.19131,44.864 138.32631,44.27 138.32631,43.694 L138.32631,43.694 L138.32631,34.496 L136.11231,34.496 L136.02231,35.414 C135.73431,35.042 135.38331,34.766 134.96931,34.586 C134.55531,34.406 134.07831,34.316 133.53831,34.316 C132.78231,34.316 132.11631,34.511 131.54031,34.901 C130.96431,35.291 130.51431,35.846 130.19031,36.566 C129.86631,37.286 129.70431,38.138 129.70431,39.122 L129.70431,39.122 L129.70431,39.23 C129.70431,40.226 129.86331,41.099 130.18131,41.849 C130.49931,42.599 130.94931,43.175 131.53131,43.577 C132.11331,43.979 132.77631,44.18 133.52031,44.18 C134.01231,44.18 134.45331,44.096 134.84331,43.928 C135.23331,43.76 135.57831,43.508 135.87831,43.172 L135.87831,43.172 L135.87831,43.676 C135.87831,44.396 135.69231,44.945 135.32031,45.323 C134.94831,45.701 134.40831,45.89 133.70031,45.89 C133.23231,45.89 132.80331,45.8 132.41331,45.62 C132.02331,45.44 131.67831,45.164 131.37831,44.792 L131.37831,44.792 L130.28031,46.232 C130.62831,46.688 131.12931,47.054 131.78331,47.33 C132.43731,47.606 133.11231,47.744 133.80831,47.744 Z M134.15031,42.254 C133.51431,42.254 133.01931,41.999 132.66531,41.489 C132.31131,40.979 132.13431,40.268 132.13431,39.356 C132.13431,38.348 132.31131,37.577 132.66531,37.043 C133.01931,36.509 133.52031,36.242 134.16831,36.242 C134.94831,36.242 135.51831,36.554 135.87831,37.178 L135.87831,37.178 L135.87831,41.3 C135.69831,41.624 135.46431,41.864 135.17631,42.02 C134.88831,42.176 134.54631,42.254 134.15031,42.254 Z M141.13404,47.492 C141.68604,47.036 142.14204,46.436 142.50204,45.692 C142.86204,44.948 143.04804,44.216 143.06004,43.496 L143.06004,43.496 L143.06004,41.624 L140.72004,41.624 L140.72004,43.802 C140.70804,44.222 140.62404,44.66 140.46804,45.116 C140.31204,45.572 140.05404,46.112 139.69404,46.736 L139.69404,46.736 L141.13404,47.492 Z M154.093932,44.18 C154.837932,44.18 155.488932,43.985 156.046932,43.595 C156.604932,43.205 157.033932,42.647 157.333932,41.921 C157.633932,41.195 157.783932,40.334 157.783932,39.338 L157.783932,39.338 L157.783932,39.194 C157.783932,37.658 157.456932,36.461 156.802932,35.603 C156.148932,34.745 155.239932,34.316 154.075932,34.316 C153.571932,34.316 153.121932,34.403 152.725932,34.577 C152.329932,34.751 151.987932,35.012 151.699932,35.36 L151.699932,35.36 L151.699932,30.5 L149.251932,30.5 L149.251932,44 L151.447932,44 L151.573932,42.974 C151.873932,43.37 152.233932,43.67 152.653932,43.874 C153.073932,44.078 153.553932,44.18 154.093932,44.18 Z M153.463932,42.254 C153.055932,42.254 152.701932,42.167 152.401932,41.993 C152.101932,41.819 151.867932,41.558 151.699932,41.21 L151.699932,41.21 L151.699932,37.286 C151.867932,36.962 152.107932,36.707 152.419932,36.521 C152.731932,36.335 153.073932,36.242 153.445932,36.242 C154.081932,36.242 154.555932,36.482 154.867932,36.962 C155.179932,37.442 155.335932,38.168 155.335932,39.14 C155.335932,40.208 155.188932,40.994 154.894932,41.498 C154.600932,42.002 154.123932,42.254 153.463932,42.254 Z M163.471869,44.18 C164.347869,44.18 165.124869,43.982 165.802869,43.586 C166.480869,43.19 167.005869,42.629 167.377869,41.903 C167.749869,41.177 167.935869,40.322 167.935869,39.338 L167.935869,39.338 L167.935869,39.23 C167.935869,38.234 167.752869,37.367 167.386869,36.629 C167.020869,35.891 166.498869,35.321 165.820869,34.919 C165.142869,34.517 164.353869,34.316 163.453869,34.316 C162.493869,34.316 161.674869,34.532 160.996869,34.964 C160.318869,35.396 159.805869,35.981 159.457869,36.719 C159.109869,37.457 158.947869,38.27 158.971869,39.158 L158.971869,39.158 L158.971869,39.5 C158.995869,40.448 159.196869,41.273 159.574869,41.975 C159.952869,42.677 160.474869,43.22 161.140869,43.604 C161.806869,43.988 162.583869,44.18 163.471869,44.18 Z M163.471869,42.272 C163.039869,42.272 162.667869,42.158 162.355869,41.93 C162.043869,41.702 161.806869,41.369 161.644869,40.931 C161.482869,40.493 161.401869,39.962 161.401869,39.338 L161.401869,39.338 L161.401869,38.96 C161.425869,38.372 161.521869,37.871 161.689869,37.457 C161.857869,37.043 162.091869,36.734 162.391869,36.53 C162.691869,36.326 163.045869,36.224 163.453869,36.224 C163.885869,36.224 164.257869,36.338 164.569869,36.566 C164.881869,36.794 165.118869,37.127 165.280869,37.565 C165.442869,38.003 165.523869,38.534 165.523869,39.158 L165.523869,39.158 L165.523869,39.392 C165.523869,40.016 165.439869,40.541 165.271869,40.967 C165.103869,41.393 164.869869,41.717 164.569869,41.939 C164.269869,42.161 163.903869,42.272 163.471869,42.272 Z M170.545638,47.834 C171.205638,47.834 171.769638,47.678 172.237638,47.366 C172.705638,47.054 173.077638,46.58 173.353638,45.944 L173.353638,45.944 L173.515638,45.548 L177.367638,34.496 L174.775638,34.496 L173.047638,40.166 L172.939638,40.562 L171.085638,34.496 L168.475638,34.496 L171.823638,44.018 L171.517638,44.774 C171.373638,45.194 171.175638,45.491 170.923638,45.665 C170.671638,45.839 170.311638,45.914 169.843638,45.89 C169.711638,45.89 169.579638,45.884 169.447638,45.872 L169.447638,45.872 L169.447638,47.69 C169.831638,47.774 170.197638,47.822 170.545638,47.834 Z M182.029638,44.18 C182.797638,44.18 183.481638,44.06 184.081638,43.82 C184.681638,43.58 185.146638,43.238 185.476638,42.794 C185.806638,42.35 185.971638,41.852 185.971638,41.3 C185.971638,40.604 185.752638,40.037 185.314638,39.599 C184.876638,39.161 184.207638,38.816 183.307638,38.564 C183.235638,38.54 183.025638,38.486 182.677638,38.402 C182.005638,38.27 181.486638,38.117 181.120638,37.943 C180.754638,37.769 180.571638,37.496 180.571638,37.124 C180.571638,36.8 180.703638,36.533 180.967638,36.323 C181.231638,36.113 181.573638,36.008 181.993638,36.008 C182.461638,36.008 182.833638,36.131 183.109638,36.377 C183.385638,36.623 183.523638,36.95 183.523638,37.358 L183.523638,37.358 L185.953638,37.358 C185.953638,36.758 185.788638,36.23 185.458638,35.774 C185.128638,35.318 184.666638,34.961 184.072638,34.703 C183.478638,34.445 182.791638,34.316 182.011638,34.316 C181.279638,34.316 180.628638,34.442 180.058638,34.694 C179.488638,34.946 179.044638,35.294 178.726638,35.738 C178.408638,36.182 178.249638,36.68 178.249638,37.232 C178.249638,37.94 178.528638,38.528 179.086638,38.996 C179.644638,39.464 180.481638,39.824 181.597638,40.076 C182.329638,40.244 182.848638,40.418 183.154638,40.598 C183.460638,40.778 183.613638,41.042 183.613638,41.39 C183.613638,41.606 183.553638,41.798 183.433638,41.966 C183.313638,42.134 183.136638,42.26 182.902638,42.344 C182.668638,42.428 182.389638,42.47 182.065638,42.47 C181.525638,42.47 181.093638,42.344 180.769638,42.092 C180.445638,41.84 180.271638,41.474 180.247638,40.994 L180.247638,40.994 L177.943638,40.994 C177.943638,41.606 178.123638,42.152 178.483638,42.632 C178.843638,43.112 179.338638,43.49 179.968638,43.766 C180.598638,44.042 181.285638,44.18 182.029638,44.18 Z M194.539482,44.18 C195.043482,44.18 195.499482,44.09 195.907482,43.91 C196.315482,43.73 196.681482,43.454 197.005482,43.082 C197.065482,43.478 197.149482,43.784 197.257482,44 L197.257482,44 L199.705482,44 L199.705482,43.856 C199.477482,43.376 199.357482,42.692 199.345482,41.804 L199.345482,41.804 L199.345482,37.538 C199.321482,36.542 198.973482,35.756 198.301482,35.18 C197.629482,34.604 196.711482,34.316 195.547482,34.316 C194.779482,34.316 194.092482,34.448 193.486482,34.712 C192.880482,34.976 192.406482,35.336 192.064482,35.792 C191.722482,36.248 191.551482,36.752 191.551482,37.304 L191.551482,37.304 L193.963482,37.304 C193.963482,37.052 194.023482,36.836 194.143482,36.656 C194.263482,36.476 194.434482,36.335 194.656482,36.233 C194.878482,36.131 195.133482,36.08 195.421482,36.08 C195.913482,36.08 196.285482,36.212 196.537482,36.476 C196.789482,36.74 196.915482,37.118 196.915482,37.61 L196.915482,37.61 L196.915482,38.204 L195.727482,38.204 C194.311482,38.204 193.222482,38.471 192.460482,39.005 C191.698482,39.539 191.317482,40.316 191.317482,41.336 C191.317482,41.876 191.461482,42.359 191.749482,42.785 C192.037482,43.211 192.424482,43.55 192.910482,43.802 C193.396482,44.054 193.939482,44.18 194.539482,44.18 Z M195.079482,42.344 C194.683482,42.344 194.365482,42.236 194.125482,42.02 C193.885482,41.804 193.765482,41.516 193.765482,41.156 C193.765482,40.64 193.942482,40.256 194.296482,40.004 C194.650482,39.752 195.181482,39.626 195.889482,39.626 L195.889482,39.626 L196.915482,39.626 L196.915482,41.318 C196.759482,41.618 196.513482,41.864 196.177482,42.056 C195.841482,42.248 195.475482,42.344 195.079482,42.344 Z M203.737401,44 L203.737401,37.268 C203.905401,36.932 204.136401,36.677 204.430401,36.503 C204.724401,36.329 205.063401,36.242 205.447401,36.242 C205.999401,36.242 206.398401,36.371 206.644401,36.629 C206.890401,36.887 207.013401,37.304 207.013401,37.88 L207.013401,37.88 L207.013401,44 L209.443401,44 L209.443401,37.808 C209.431401,36.644 209.176401,35.771 208.678401,35.189 C208.180401,34.607 207.433401,34.316 206.437401,34.316 C205.849401,34.316 205.327401,34.427 204.871401,34.649 C204.415401,34.871 204.019401,35.204 203.683401,35.648 L203.683401,35.648 L203.593401,34.496 L201.307401,34.496 L201.307401,44 L203.737401,44 Z M214.735229,44.18 C215.251229,44.18 215.716229,44.081 216.130229,43.883 C216.544229,43.685 216.901229,43.382 217.201229,42.974 L217.201229,42.974 L217.327229,44 L219.523229,44 L219.523229,30.5 L217.093229,30.5 L217.093229,35.378 C216.793229,35.018 216.445229,34.751 216.049229,34.577 C215.653229,34.403 215.221229,34.316 214.753229,34.316 C213.997229,34.316 213.337229,34.514 212.773229,34.91 C212.209229,35.306 211.774229,35.867 211.468229,36.593 C211.162229,37.319 211.009229,38.18 211.009229,39.176 C211.009229,40.196 211.165229,41.084 211.477229,41.84 C211.789229,42.596 212.224229,43.175 212.782229,43.577 C213.340229,43.979 213.991229,44.18 214.735229,44.18 Z M215.347229,42.254 C214.735229,42.254 214.267229,42.008 213.943229,41.516 C213.619229,41.024 213.457229,40.304 213.457229,39.356 L213.457229,39.356 L213.457229,38.924 C213.481229,38.048 213.658229,37.382 213.988229,36.926 C214.318229,36.47 214.777229,36.242 215.365229,36.242 C216.157229,36.242 216.733229,36.59 217.093229,37.286 L217.093229,37.286 L217.093229,41.21 C216.913229,41.558 216.679229,41.819 216.391229,41.993 C216.103229,42.167 215.755229,42.254 215.347229,42.254 Z M229.315001,47.744 C230.431001,47.744 231.328001,47.519 232.006001,47.069 C232.684001,46.619 233.158001,46.088 233.428001,45.476 C233.698001,44.864 233.833001,44.27 233.833001,43.694 L233.833001,43.694 L233.833001,34.496 L231.619001,34.496 L231.529001,35.414 C231.241001,35.042 230.890001,34.766 230.476001,34.586 C230.062001,34.406 229.585001,34.316 229.045001,34.316 C228.289001,34.316 227.623001,34.511 227.047001,34.901 C226.471001,35.291 226.021001,35.846 225.697001,36.566 C225.373001,37.286 225.211001,38.138 225.211001,39.122 L225.211001,39.122 L225.211001,39.23 C225.211001,40.226 225.370001,41.099 225.688001,41.849 C226.006001,42.599 226.456001,43.175 227.038001,43.577 C227.620001,43.979 228.283001,44.18 229.027001,44.18 C229.519001,44.18 229.960001,44.096 230.350001,43.928 C230.740001,43.76 231.085001,43.508 231.385001,43.172 L231.385001,43.172 L231.385001,43.676 C231.385001,44.396 231.199001,44.945 230.827001,45.323 C230.455001,45.701 229.915001,45.89 229.207001,45.89 C228.739001,45.89 228.310001,45.8 227.920001,45.62 C227.530001,45.44 227.185001,45.164 226.885001,44.792 L226.885001,44.792 L225.787001,46.232 C226.135001,46.688 226.636001,47.054 227.290001,47.33 C227.944001,47.606 228.619001,47.744 229.315001,47.744 Z M229.657001,42.254 C229.021001,42.254 228.526001,41.999 228.172001,41.489 C227.818001,40.979 227.641001,40.268 227.641001,39.356 C227.641001,38.348 227.818001,37.577 228.172001,37.043 C228.526001,36.509 229.027001,36.242 229.675001,36.242 C230.455001,36.242 231.025001,36.554 231.385001,37.178 L231.385001,37.178 L231.385001,41.3 C231.205001,41.624 230.971001,41.864 230.683001,42.02 C230.395001,42.176 230.053001,42.254 229.657001,42.254 Z M237.18073,33.254 C237.58873,33.254 237.91873,33.137 238.17073,32.903 C238.42273,32.669 238.54873,32.372 238.54873,32.012 C238.54873,31.652 238.42273,31.355 238.17073,31.121 C237.91873,30.887 237.58873,30.77 237.18073,30.77 C236.76073,30.77 236.42773,30.887 236.18173,31.121 C235.93573,31.355 235.81273,31.652 235.81273,32.012 C235.81273,32.384 235.93573,32.684 236.18173,32.912 C236.42773,33.14 236.76073,33.254 237.18073,33.254 Z M238.40473,44 L238.40473,34.496 L235.95673,34.496 L235.95673,44 L238.40473,44 Z M242.976612,44 L242.976612,37.7 C243.132612,37.328 243.372612,37.055 243.696612,36.881 C244.020612,36.707 244.428612,36.62 244.920612,36.62 C245.340612,36.62 245.640612,36.644 245.820612,36.692 L245.820612,36.692 L245.856612,34.424 C245.652612,34.352 245.388612,34.316 245.064612,34.316 C244.608612,34.316 244.200612,34.43 243.840612,34.658 C243.480612,34.886 243.168612,35.222 242.904612,35.666 L242.904612,35.666 L242.850612,34.496 L240.528612,34.496 L240.528612,44 L242.976612,44 Z M249.654456,44 L249.654456,30.5 L247.206456,30.5 L247.206456,44 L249.654456,44 Z M255.396337,44.18 C256.164337,44.18 256.848337,44.06 257.448337,43.82 C258.048337,43.58 258.513337,43.238 258.843337,42.794 C259.173337,42.35 259.338337,41.852 259.338337,41.3 C259.338337,40.604 259.119337,40.037 258.681337,39.599 C258.243337,39.161 257.574337,38.816 256.674337,38.564 C256.602337,38.54 256.392337,38.486 256.044337,38.402 C255.372337,38.27 254.853337,38.117 254.487337,37.943 C254.121337,37.769 253.938337,37.496 253.938337,37.124 C253.938337,36.8 254.070337,36.533 254.334337,36.323 C254.598337,36.113 254.940337,36.008 255.360337,36.008 C255.828337,36.008 256.200337,36.131 256.476337,36.377 C256.752337,36.623 256.890337,36.95 256.890337,37.358 L256.890337,37.358 L259.320337,37.358 C259.320337,36.758 259.155337,36.23 258.825337,35.774 C258.495337,35.318 258.033337,34.961 257.439337,34.703 C256.845337,34.445 256.158337,34.316 255.378337,34.316 C254.646337,34.316 253.995337,34.442 253.425337,34.694 C252.855337,34.946 252.411337,35.294 252.093337,35.738 C251.775337,36.182 251.616337,36.68 251.616337,37.232 C251.616337,37.94 251.895337,38.528 252.453337,38.996 C253.011337,39.464 253.848337,39.824 254.964337,40.076 C255.696337,40.244 256.215337,40.418 256.521337,40.598 C256.827337,40.778 256.980337,41.042 256.980337,41.39 C256.980337,41.606 256.920337,41.798 256.800337,41.966 C256.680337,42.134 256.503337,42.26 256.269337,42.344 C256.035337,42.428 255.756337,42.47 255.432337,42.47 C254.892337,42.47 254.460337,42.344 254.136337,42.092 C253.812337,41.84 253.638337,41.474 253.614337,40.994 L253.614337,40.994 L251.310337,40.994 C251.310337,41.606 251.490337,42.152 251.850337,42.632 C252.210337,43.112 252.705337,43.49 253.335337,43.766 C253.965337,44.042 254.652337,44.18 255.396337,44.18 Z M28.87,71 L28.87,58.202 L26.35,58.202 L26.35,71 L28.87,71 Z M32.5598792,62.216 L32.8118792,58.742 L32.8118792,57.5 L31.0118792,57.5 L31.0118792,62.216 L32.5598792,62.216 Z M36.8436682,71 L36.8436682,64.25 C37.0236682,63.914 37.2516682,63.662 37.5276682,63.494 C37.7916682,63.326 38.1156682,63.242 38.4996682,63.242 C39.0276682,63.242 39.4116682,63.374 39.6516682,63.638 C39.8916682,63.902 40.0116682,64.328 40.0116682,64.916 L40.0116682,64.916 L40.0116682,71 L42.4416682,71 L42.4416682,64.628 L42.4236682,64.502 C42.5676682,64.058 42.7956682,63.728 43.1076682,63.512 C43.3836682,63.332 43.7136682,63.242 44.0976682,63.242 C44.6376682,63.242 45.0216682,63.371 45.2496682,63.629 C45.4776682,63.887 45.5916682,64.31 45.5916682,64.898 L45.5916682,64.898 L45.5916682,71 L48.0216682,71 L48.0216682,64.736 C48.0096682,63.596 47.7456682,62.741 47.2296682,62.171 C46.7136682,61.601 45.9636682,61.316 44.9796682,61.316 C44.3436682,61.316 43.7826682,61.442 43.2966682,61.694 C42.8106682,61.946 42.4056682,62.312 42.0816682,62.792 C41.8656682,62.3 41.5446682,61.931 41.1186682,61.685 C40.6926682,61.439 40.1676682,61.316 39.5436682,61.316 C38.9676682,61.316 38.4486682,61.421 37.9866682,61.631 C37.5246682,61.841 37.1256682,62.156 36.7896682,62.576 L36.7896682,62.576 L36.6996682,61.496 L34.4136682,61.496 L34.4136682,71 L36.8436682,71 Z M55.1854551,74.834 C55.8454551,74.834 56.4094551,74.678 56.8774551,74.366 C57.3454551,74.054 57.7174551,73.58 57.9934551,72.944 L57.9934551,72.944 L58.1554551,72.548 L62.0074551,61.496 L59.4154551,61.496 L57.6874551,67.166 L57.5794551,67.562 L55.7254551,61.496 L53.1154551,61.496 L56.4634551,71.018 L56.1574551,71.774 C56.0134551,72.194 55.8154551,72.491 55.5634551,72.665 C55.3114551,72.839 54.9514551,72.914 54.4834551,72.89 C54.3514551,72.89 54.2194551,72.884 54.0874551,72.872 L54.0874551,72.872 L54.0874551,74.69 C54.4714551,74.774 54.8374551,74.822 55.1854551,74.834 Z M67.0294551,71.18 C67.9054551,71.18 68.6824551,70.982 69.3604551,70.586 C70.0384551,70.19 70.5634551,69.629 70.9354551,68.903 C71.3074551,68.177 71.4934551,67.322 71.4934551,66.338 L71.4934551,66.338 L71.4934551,66.23 C71.4934551,65.234 71.3104551,64.367 70.9444551,63.629 C70.5784551,62.891 70.0564551,62.321 69.3784551,61.919 C68.7004551,61.517 67.9114551,61.316 67.0114551,61.316 C66.0514551,61.316 65.2324551,61.532 64.5544551,61.964 C63.8764551,62.396 63.3634551,62.981 63.0154551,63.719 C62.6674551,64.457 62.5054551,65.27 62.5294551,66.158 L62.5294551,66.158 L62.5294551,66.5 C62.5534551,67.448 62.7544551,68.273 63.1324551,68.975 C63.5104551,69.677 64.0324551,70.22 64.6984551,70.604 C65.3644551,70.988 66.1414551,71.18 67.0294551,71.18 Z M67.0294551,69.272 C66.5974551,69.272 66.2254551,69.158 65.9134551,68.93 C65.6014551,68.702 65.3644551,68.369 65.2024551,67.931 C65.0404551,67.493 64.9594551,66.962 64.9594551,66.338 L64.9594551,66.338 L64.9594551,65.96 C64.9834551,65.372 65.0794551,64.871 65.2474551,64.457 C65.4154551,64.043 65.6494551,63.734 65.9494551,63.53 C66.2494551,63.326 66.6034551,63.224 67.0114551,63.224 C67.4434551,63.224 67.8154551,63.338 68.1274551,63.566 C68.4394551,63.794 68.6764551,64.127 68.8384551,64.565 C69.0004551,65.003 69.0814551,65.534 69.0814551,66.158 L69.0814551,66.158 L69.0814551,66.392 C69.0814551,67.016 68.9974551,67.541 68.8294551,67.967 C68.6614551,68.393 68.4274551,68.717 68.1274551,68.939 C67.8274551,69.161 67.4614551,69.272 67.0294551,69.272 Z M76.2092244,71.18 C76.7732244,71.18 77.2772244,71.084 77.7212244,70.892 C78.1652244,70.7 78.5432244,70.406 78.8552244,70.01 L78.8552244,70.01 L78.9092244,71 L81.1952244,71 L81.1952244,61.496 L78.7472244,61.496 L78.7472244,68.264 C78.5912244,68.588 78.3572244,68.834 78.0452244,69.002 C77.7332244,69.17 77.3492244,69.254 76.8932244,69.254 C76.4252244,69.254 76.0742244,69.122 75.8402244,68.858 C75.6062244,68.594 75.4892244,68.192 75.4892244,67.652 L75.4892244,67.652 L75.4892244,61.496 L73.0412244,61.496 L73.0412244,67.652 C73.0532244,68.816 73.3262244,69.695 73.8602244,70.289 C74.3942244,70.883 75.1772244,71.18 76.2092244,71.18 Z M85.605053,71 L85.605053,64.7 C85.761053,64.328 86.001053,64.055 86.325053,63.881 C86.649053,63.707 87.057053,63.62 87.549053,63.62 C87.969053,63.62 88.269053,63.644 88.449053,63.692 L88.449053,63.692 L88.485053,61.424 C88.281053,61.352 88.017053,61.316 87.693053,61.316 C87.237053,61.316 86.829053,61.43 86.469053,61.658 C86.109053,61.886 85.797053,62.222 85.533053,62.666 L85.533053,62.666 L85.479053,61.496 L83.157053,61.496 L83.157053,71 L85.605053,71 Z M102.434879,71 L102.434879,69.02 L96.4228794,69.02 L96.4228794,65.384 L101.570879,65.384 L101.570879,63.458 L96.4228794,63.458 L96.4228794,60.182 L102.416879,60.182 L102.416879,58.202 L93.9208794,58.202 L93.9208794,71 L102.434879,71 Z M106.250668,71 L106.250668,64.268 C106.418668,63.932 106.649668,63.677 106.943668,63.503 C107.237668,63.329 107.576668,63.242 107.960668,63.242 C108.512668,63.242 108.911668,63.371 109.157668,63.629 C109.403668,63.887 109.526668,64.304 109.526668,64.88 L109.526668,64.88 L109.526668,71 L111.956668,71 L111.956668,64.808 C111.944668,63.644 111.689668,62.771 111.191668,62.189 C110.693668,61.607 109.946668,61.316 108.950668,61.316 C108.362668,61.316 107.840668,61.427 107.384668,61.649 C106.928668,61.871 106.532668,62.204 106.196668,62.648 L106.196668,62.648 L106.106668,61.496 L103.820668,61.496 L103.820668,71 L106.250668,71 Z M117.662497,74.744 C118.778497,74.744 119.675497,74.519 120.353497,74.069 C121.031497,73.619 121.505497,73.088 121.775497,72.476 C122.045497,71.864 122.180497,71.27 122.180497,70.694 L122.180497,70.694 L122.180497,61.496 L119.966497,61.496 L119.876497,62.414 C119.588497,62.042 119.237497,61.766 118.823497,61.586 C118.409497,61.406 117.932497,61.316 117.392497,61.316 C116.636497,61.316 115.970497,61.511 115.394497,61.901 C114.818497,62.291 114.368497,62.846 114.044497,63.566 C113.720497,64.286 113.558497,65.138 113.558497,66.122 L113.558497,66.122 L113.558497,66.23 C113.558497,67.226 113.717497,68.099 114.035497,68.849 C114.353497,69.599 114.803497,70.175 115.385497,70.577 C115.967497,70.979 116.630497,71.18 117.374497,71.18 C117.866497,71.18 118.307497,71.096 118.697497,70.928 C119.087497,70.76 119.432497,70.508 119.732497,70.172 L119.732497,70.172 L119.732497,70.676 C119.732497,71.396 119.546497,71.945 119.174497,72.323 C118.802497,72.701 118.262497,72.89 117.554497,72.89 C117.086497,72.89 116.657497,72.8 116.267497,72.62 C115.877497,72.44 115.532497,72.164 115.232497,71.792 L115.232497,71.792 L114.134497,73.232 C114.482497,73.688 114.983497,74.054 115.637497,74.33 C116.291497,74.606 116.966497,74.744 117.662497,74.744 Z M118.004497,69.254 C117.368497,69.254 116.873497,68.999 116.519497,68.489 C116.165497,67.979 115.988497,67.268 115.988497,66.356 C115.988497,65.348 116.165497,64.577 116.519497,64.043 C116.873497,63.509 117.374497,63.242 118.022497,63.242 C118.802497,63.242 119.372497,63.554 119.732497,64.178 L119.732497,64.178 L119.732497,68.3 C119.552497,68.624 119.318497,68.864 119.030497,69.02 C118.742497,69.176 118.400497,69.254 118.004497,69.254 Z M126.752227,71 L126.752227,57.5 L124.304227,57.5 L124.304227,71 L126.752227,71 Z M130.244108,60.254 C130.652108,60.254 130.982108,60.137 131.234108,59.903 C131.486108,59.669 131.612108,59.372 131.612108,59.012 C131.612108,58.652 131.486108,58.355 131.234108,58.121 C130.982108,57.887 130.652108,57.77 130.244108,57.77 C129.824108,57.77 129.491108,57.887 129.245108,58.121 C128.999108,58.355 128.876108,58.652 128.876108,59.012 C128.876108,59.384 128.999108,59.684 129.245108,59.912 C129.491108,60.14 129.824108,60.254 130.244108,60.254 Z M131.468108,71 L131.468108,61.496 L129.020108,61.496 L129.020108,71 L131.468108,71 Z M137.20999,71.18 C137.97799,71.18 138.66199,71.06 139.26199,70.82 C139.86199,70.58 140.32699,70.238 140.65699,69.794 C140.98699,69.35 141.15199,68.852 141.15199,68.3 C141.15199,67.604 140.93299,67.037 140.49499,66.599 C140.05699,66.161 139.38799,65.816 138.48799,65.564 C138.41599,65.54 138.20599,65.486 137.85799,65.402 C137.18599,65.27 136.66699,65.117 136.30099,64.943 C135.93499,64.769 135.75199,64.496 135.75199,64.124 C135.75199,63.8 135.88399,63.533 136.14799,63.323 C136.41199,63.113 136.75399,63.008 137.17399,63.008 C137.64199,63.008 138.01399,63.131 138.28999,63.377 C138.56599,63.623 138.70399,63.95 138.70399,64.358 L138.70399,64.358 L141.13399,64.358 C141.13399,63.758 140.96899,63.23 140.63899,62.774 C140.30899,62.318 139.84699,61.961 139.25299,61.703 C138.65899,61.445 137.97199,61.316 137.19199,61.316 C136.45999,61.316 135.80899,61.442 135.23899,61.694 C134.66899,61.946 134.22499,62.294 133.90699,62.738 C133.58899,63.182 133.42999,63.68 133.42999,64.232 C133.42999,64.94 133.70899,65.528 134.26699,65.996 C134.82499,66.464 135.66199,66.824 136.77799,67.076 C137.50999,67.244 138.02899,67.418 138.33499,67.598 C138.64099,67.778 138.79399,68.042 138.79399,68.39 C138.79399,68.606 138.73399,68.798 138.61399,68.966 C138.49399,69.134 138.31699,69.26 138.08299,69.344 C137.84899,69.428 137.56999,69.47 137.24599,69.47 C136.70599,69.47 136.27399,69.344 135.94999,69.092 C135.62599,68.84 135.45199,68.474 135.42799,67.994 L135.42799,67.994 L133.12399,67.994 C133.12399,68.606 133.30399,69.152 133.66399,69.632 C134.02399,70.112 134.51899,70.49 135.14899,70.766 C135.77899,71.042 136.46599,71.18 137.20999,71.18 Z M145.237851,71 L145.237851,64.196 C145.405851,63.896 145.633851,63.662 145.921851,63.494 C146.209851,63.326 146.551851,63.242 146.947851,63.242 C147.499851,63.242 147.898851,63.374 148.144851,63.638 C148.390851,63.902 148.513851,64.328 148.513851,64.916 L148.513851,64.916 L148.513851,71 L150.943851,71 L150.943851,64.898 C150.931851,63.71 150.664851,62.816 150.142851,62.216 C149.620851,61.616 148.843851,61.316 147.811851,61.316 C147.283851,61.316 146.803851,61.421 146.371851,61.631 C145.939851,61.841 145.561851,62.15 145.237851,62.558 L145.237851,62.558 L145.237851,57.5 L142.789851,57.5 L142.789851,71 L145.237851,71 Z M160.141662,71.18 C160.645662,71.18 161.143662,71.108 161.635662,70.964 L161.635662,70.964 L161.635662,69.164 C161.395662,69.212 161.143662,69.236 160.879662,69.236 C160.507662,69.236 160.249662,69.158 160.105662,69.002 C159.961662,68.846 159.889662,68.576 159.889662,68.192 L159.889662,68.192 L159.889662,63.224 L161.545662,63.224 L161.545662,61.496 L159.889662,61.496 L159.889662,59.156 L157.459662,59.156 L157.459662,61.496 L156.037662,61.496 L156.037662,63.224 L157.459662,63.224 L157.459662,68.408 C157.459662,69.332 157.681662,70.025 158.125662,70.487 C158.569662,70.949 159.241662,71.18 160.141662,71.18 Z M167.341489,71.18 C168.133489,71.18 168.850489,71.027 169.492489,70.721 C170.134489,70.415 170.647489,69.986 171.031489,69.434 L171.031489,69.434 L169.825489,68.174 C169.537489,68.534 169.201489,68.807 168.817489,68.993 C168.433489,69.179 167.995489,69.272 167.503489,69.272 C167.059489,69.272 166.669489,69.179 166.333489,68.993 C165.997489,68.807 165.724489,68.546 165.514489,68.21 C165.304489,67.874 165.175489,67.478 165.127489,67.022 L165.127489,67.022 L165.127489,67.004 L171.229489,67.004 L171.229489,66.032 C171.229489,65.048 171.061489,64.202 170.725489,63.494 C170.389489,62.786 169.909489,62.246 169.285489,61.874 C168.661489,61.502 167.923489,61.316 167.071489,61.316 C166.159489,61.316 165.370489,61.529 164.704489,61.955 C164.038489,62.381 163.531489,62.963 163.183489,63.701 C162.835489,64.439 162.661489,65.282 162.661489,66.23 L162.661489,66.23 L162.661489,66.482 C162.661489,67.418 162.856489,68.24 163.246489,68.948 C163.636489,69.656 164.185489,70.205 164.893489,70.595 C165.601489,70.985 166.417489,71.18 167.341489,71.18 Z M168.835489,65.348 L165.145489,65.348 C165.193489,64.892 165.304489,64.505 165.478489,64.187 C165.652489,63.869 165.871489,63.629 166.135489,63.467 C166.399489,63.305 166.705489,63.224 167.053489,63.224 C167.425489,63.224 167.743489,63.299 168.007489,63.449 C168.271489,63.599 168.472489,63.821 168.610489,64.115 C168.748489,64.409 168.823489,64.76 168.835489,65.168 L168.835489,65.168 L168.835489,65.348 Z M175.531387,71.18 C176.035387,71.18 176.491387,71.09 176.899387,70.91 C177.307387,70.73 177.673387,70.454 177.997387,70.082 C178.057387,70.478 178.141387,70.784 178.249387,71 L178.249387,71 L180.697387,71 L180.697387,70.856 C180.469387,70.376 180.349387,69.692 180.337387,68.804 L180.337387,68.804 L180.337387,64.538 C180.313387,63.542 179.965387,62.756 179.293387,62.18 C178.621387,61.604 177.703387,61.316 176.539387,61.316 C175.771387,61.316 175.084387,61.448 174.478387,61.712 C173.872387,61.976 173.398387,62.336 173.056387,62.792 C172.714387,63.248 172.543387,63.752 172.543387,64.304 L172.543387,64.304 L174.955387,64.304 C174.955387,64.052 175.015387,63.836 175.135387,63.656 C175.255387,63.476 175.426387,63.335 175.648387,63.233 C175.870387,63.131 176.125387,63.08 176.413387,63.08 C176.905387,63.08 177.277387,63.212 177.529387,63.476 C177.781387,63.74 177.907387,64.118 177.907387,64.61 L177.907387,64.61 L177.907387,65.204 L176.719387,65.204 C175.303387,65.204 174.214387,65.471 173.452387,66.005 C172.690387,66.539 172.309387,67.316 172.309387,68.336 C172.309387,68.876 172.453387,69.359 172.741387,69.785 C173.029387,70.211 173.416387,70.55 173.902387,70.802 C174.388387,71.054 174.931387,71.18 175.531387,71.18 Z M176.071387,69.344 C175.675387,69.344 175.357387,69.236 175.117387,69.02 C174.877387,68.804 174.757387,68.516 174.757387,68.156 C174.757387,67.64 174.934387,67.256 175.288387,67.004 C175.642387,66.752 176.173387,66.626 176.881387,66.626 L176.881387,66.626 L177.907387,66.626 L177.907387,68.318 C177.751387,68.618 177.505387,68.864 177.169387,69.056 C176.833387,69.248 176.467387,69.344 176.071387,69.344 Z M186.313306,71.18 C187.057306,71.18 187.726306,71.027 188.320306,70.721 C188.914306,70.415 189.379306,70.004 189.715306,69.488 C190.051306,68.972 190.225306,68.396 190.237306,67.76 L190.237306,67.76 L187.951306,67.76 C187.939306,68.216 187.777306,68.582 187.465306,68.858 C187.153306,69.134 186.757306,69.272 186.277306,69.272 C185.629306,69.272 185.146306,69.038 184.828306,68.57 C184.510306,68.102 184.357306,67.376 184.369306,66.392 L184.369306,66.392 L184.369306,66.104 C184.381306,65.132 184.543306,64.409 184.855306,63.935 C185.167306,63.461 185.635306,63.224 186.259306,63.224 C186.751306,63.224 187.153306,63.383 187.465306,63.701 C187.777306,64.019 187.939306,64.448 187.951306,64.988 L187.951306,64.988 L190.237306,64.988 C190.225306,64.244 190.054306,63.596 189.724306,63.044 C189.394306,62.492 188.935306,62.066 188.347306,61.766 C187.759306,61.466 187.075306,61.316 186.295306,61.316 C185.371306,61.316 184.582306,61.523 183.928306,61.937 C183.274306,62.351 182.779306,62.918 182.443306,63.638 C182.107306,64.358 181.939306,65.18 181.939306,66.104 L181.939306,66.104 L181.939306,66.302 C181.939306,67.31 182.116306,68.18 182.470306,68.912 C182.824306,69.644 183.328306,70.205 183.982306,70.595 C184.636306,70.985 185.413306,71.18 186.313306,71.18 Z M194.107236,71 L194.107236,64.196 C194.275236,63.896 194.503236,63.662 194.791236,63.494 C195.079236,63.326 195.421236,63.242 195.817236,63.242 C196.369236,63.242 196.768236,63.374 197.014236,63.638 C197.260236,63.902 197.383236,64.328 197.383236,64.916 L197.383236,64.916 L197.383236,71 L199.813236,71 L199.813236,64.898 C199.801236,63.71 199.534236,62.816 199.012236,62.216 C198.490236,61.616 197.713236,61.316 196.681236,61.316 C196.153236,61.316 195.673236,61.421 195.241236,61.631 C194.809236,61.841 194.431236,62.15 194.107236,62.558 L194.107236,62.558 L194.107236,57.5 L191.659236,57.5 L191.659236,71 L194.107236,71 Z M206.113064,71.18 C206.905064,71.18 207.622064,71.027 208.264064,70.721 C208.906064,70.415 209.419064,69.986 209.803064,69.434 L209.803064,69.434 L208.597064,68.174 C208.309064,68.534 207.973064,68.807 207.589064,68.993 C207.205064,69.179 206.767064,69.272 206.275064,69.272 C205.831064,69.272 205.441064,69.179 205.105064,68.993 C204.769064,68.807 204.496064,68.546 204.286064,68.21 C204.076064,67.874 203.947064,67.478 203.899064,67.022 L203.899064,67.022 L203.899064,67.004 L210.001064,67.004 L210.001064,66.032 C210.001064,65.048 209.833064,64.202 209.497064,63.494 C209.161064,62.786 208.681064,62.246 208.057064,61.874 C207.433064,61.502 206.695064,61.316 205.843064,61.316 C204.931064,61.316 204.142064,61.529 203.476064,61.955 C202.810064,62.381 202.303064,62.963 201.955064,63.701 C201.607064,64.439 201.433064,65.282 201.433064,66.23 L201.433064,66.23 L201.433064,66.482 C201.433064,67.418 201.628064,68.24 202.018064,68.948 C202.408064,69.656 202.957064,70.205 203.665064,70.595 C204.373064,70.985 205.189064,71.18 206.113064,71.18 Z M207.607064,65.348 L203.917064,65.348 C203.965064,64.892 204.076064,64.505 204.250064,64.187 C204.424064,63.869 204.643064,63.629 204.907064,63.467 C205.171064,63.305 205.477064,63.224 205.825064,63.224 C206.197064,63.224 206.515064,63.299 206.779064,63.449 C207.043064,63.599 207.244064,63.821 207.382064,64.115 C207.520064,64.409 207.595064,64.76 207.607064,65.168 L207.607064,65.168 L207.607064,65.348 Z M213.906963,71 L213.906963,64.7 C214.062963,64.328 214.302963,64.055 214.626963,63.881 C214.950963,63.707 215.358963,63.62 215.850963,63.62 C216.270963,63.62 216.570963,63.644 216.750963,63.692 L216.750963,63.692 L216.786963,61.424 C216.582963,61.352 216.318963,61.316 215.994963,61.316 C215.538963,61.316 215.130963,61.43 214.770963,61.658 C214.410963,61.886 214.098963,62.222 213.834963,62.666 L213.834963,62.666 L213.780963,61.496 L211.458963,61.496 L211.458963,71 L213.906963,71 Z M28.69,98 L28.69,94.22 L28.456,88.406 L32.002,98 L33.73,98 L37.276,88.388 L37.024,94.22 L37.024,98 L39.562,98 L39.562,85.202 L36.25,85.202 L32.866,94.724 L29.482,85.202 L26.188,85.202 L26.188,98 L28.69,98 Z M42.874,101.834 C43.534,101.834 44.098,101.678 44.566,101.366 C45.034,101.054 45.406,100.58 45.682,99.944 L45.682,99.944 L45.844,99.548 L49.696,88.496 L47.104,88.496 L45.376,94.166 L45.268,94.562 L43.414,88.496 L40.804,88.496 L44.152,98.018 L43.846,98.774 C43.702,99.194 43.504,99.491 43.252,99.665 C43,99.839 42.64,99.914 42.172,99.89 C42.04,99.89 41.908,99.884 41.776,99.872 L41.776,99.872 L41.776,101.69 C42.16,101.774 42.526,101.822 42.874,101.834 Z M57.1659824,98 L57.1659824,91.268 C57.3339824,90.932 57.5649824,90.677 57.8589824,90.503 C58.1529824,90.329 58.4919824,90.242 58.8759824,90.242 C59.4279824,90.242 59.8269824,90.371 60.0729824,90.629 C60.3189824,90.887 60.4419824,91.304 60.4419824,91.88 L60.4419824,91.88 L60.4419824,98 L62.8719824,98 L62.8719824,91.808 C62.8599824,90.644 62.6049824,89.771 62.1069824,89.189 C61.6089824,88.607 60.8619824,88.316 59.8659824,88.316 C59.2779824,88.316 58.7559824,88.427 58.2999824,88.649 C57.8439824,88.871 57.4479824,89.204 57.1119824,89.648 L57.1119824,89.648 L57.0219824,88.496 L54.7359824,88.496 L54.7359824,98 L57.1659824,98 Z M67.677811,98.18 C68.181811,98.18 68.637811,98.09 69.045811,97.91 C69.453811,97.73 69.819811,97.454 70.143811,97.082 C70.203811,97.478 70.287811,97.784 70.395811,98 L70.395811,98 L72.843811,98 L72.843811,97.856 C72.615811,97.376 72.495811,96.692 72.483811,95.804 L72.483811,95.804 L72.483811,91.538 C72.459811,90.542 72.111811,89.756 71.439811,89.18 C70.767811,88.604 69.849811,88.316 68.685811,88.316 C67.917811,88.316 67.230811,88.448 66.624811,88.712 C66.018811,88.976 65.544811,89.336 65.202811,89.792 C64.860811,90.248 64.689811,90.752 64.689811,91.304 L64.689811,91.304 L67.101811,91.304 C67.101811,91.052 67.161811,90.836 67.281811,90.656 C67.401811,90.476 67.572811,90.335 67.794811,90.233 C68.016811,90.131 68.271811,90.08 68.559811,90.08 C69.051811,90.08 69.423811,90.212 69.675811,90.476 C69.927811,90.74 70.053811,91.118 70.053811,91.61 L70.053811,91.61 L70.053811,92.204 L68.865811,92.204 C67.449811,92.204 66.360811,92.471 65.598811,93.005 C64.836811,93.539 64.455811,94.316 64.455811,95.336 C64.455811,95.876 64.599811,96.359 64.887811,96.785 C65.175811,97.211 65.562811,97.55 66.048811,97.802 C66.534811,98.054 67.077811,98.18 67.677811,98.18 Z M68.217811,96.344 C67.821811,96.344 67.503811,96.236 67.263811,96.02 C67.023811,95.804 66.903811,95.516 66.903811,95.156 C66.903811,94.64 67.080811,94.256 67.434811,94.004 C67.788811,93.752 68.319811,93.626 69.027811,93.626 L69.027811,93.626 L70.053811,93.626 L70.053811,95.318 C69.897811,95.618 69.651811,95.864 69.315811,96.056 C68.979811,96.248 68.613811,96.344 68.217811,96.344 Z M76.9117297,98 L76.9117297,91.25 C77.0917297,90.914 77.3197297,90.662 77.5957297,90.494 C77.8597297,90.326 78.1837297,90.242 78.5677297,90.242 C79.0957297,90.242 79.4797297,90.374 79.7197297,90.638 C79.9597297,90.902 80.0797297,91.328 80.0797297,91.916 L80.0797297,91.916 L80.0797297,98 L82.5097297,98 L82.5097297,91.628 L82.4917297,91.502 C82.6357297,91.058 82.8637297,90.728 83.1757297,90.512 C83.4517297,90.332 83.7817297,90.242 84.1657297,90.242 C84.7057297,90.242 85.0897297,90.371 85.3177297,90.629 C85.5457297,90.887 85.6597297,91.31 85.6597297,91.898 L85.6597297,91.898 L85.6597297,98 L88.0897297,98 L88.0897297,91.736 C88.0777297,90.596 87.8137297,89.741 87.2977297,89.171 C86.7817297,88.601 86.0317297,88.316 85.0477297,88.316 C84.4117297,88.316 83.8507297,88.442 83.3647297,88.694 C82.8787297,88.946 82.4737297,89.312 82.1497297,89.792 C81.9337297,89.3 81.6127297,88.931 81.1867297,88.685 C80.7607297,88.439 80.2357297,88.316 79.6117297,88.316 C79.0357297,88.316 78.5167297,88.421 78.0547297,88.631 C77.5927297,88.841 77.1937297,89.156 76.8577297,89.576 L76.8577297,89.576 L76.7677297,88.496 L74.4817297,88.496 L74.4817297,98 L76.9117297,98 Z M94.4255342,98.18 C95.2175342,98.18 95.9345342,98.027 96.5765342,97.721 C97.2185342,97.415 97.7315342,96.986 98.1155342,96.434 L98.1155342,96.434 L96.9095342,95.174 C96.6215342,95.534 96.2855342,95.807 95.9015342,95.993 C95.5175342,96.179 95.0795342,96.272 94.5875342,96.272 C94.1435342,96.272 93.7535342,96.179 93.4175342,95.993 C93.0815342,95.807 92.8085342,95.546 92.5985342,95.21 C92.3885342,94.874 92.2595342,94.478 92.2115342,94.022 L92.2115342,94.022 L92.2115342,94.004 L98.3135342,94.004 L98.3135342,93.032 C98.3135342,92.048 98.1455342,91.202 97.8095342,90.494 C97.4735342,89.786 96.9935342,89.246 96.3695342,88.874 C95.7455342,88.502 95.0075342,88.316 94.1555342,88.316 C93.2435342,88.316 92.4545342,88.529 91.7885342,88.955 C91.1225342,89.381 90.6155342,89.963 90.2675342,90.701 C89.9195342,91.439 89.7455342,92.282 89.7455342,93.23 L89.7455342,93.23 L89.7455342,93.482 C89.7455342,94.418 89.9405342,95.24 90.3305342,95.948 C90.7205342,96.656 91.2695342,97.205 91.9775342,97.595 C92.6855342,97.985 93.5015342,98.18 94.4255342,98.18 Z M95.9195342,92.348 L92.2295342,92.348 C92.2775342,91.892 92.3885342,91.505 92.5625342,91.187 C92.7365342,90.869 92.9555342,90.629 93.2195342,90.467 C93.4835342,90.305 93.7895342,90.224 94.1375342,90.224 C94.5095342,90.224 94.8275342,90.299 95.0915342,90.449 C95.3555342,90.599 95.5565342,90.821 95.6945342,91.115 C95.8325342,91.409 95.9075342,91.76 95.9195342,92.168 L95.9195342,92.168 L95.9195342,92.348 Z M105.171416,87.254 C105.579416,87.254 105.909416,87.137 106.161416,86.903 C106.413416,86.669 106.539416,86.372 106.539416,86.012 C106.539416,85.652 106.413416,85.355 106.161416,85.121 C105.909416,84.887 105.579416,84.77 105.171416,84.77 C104.751416,84.77 104.418416,84.887 104.172416,85.121 C103.926416,85.355 103.803416,85.652 103.803416,86.012 C103.803416,86.384 103.926416,86.684 104.172416,86.912 C104.418416,87.14 104.751416,87.254 105.171416,87.254 Z M106.395416,98 L106.395416,88.496 L103.947416,88.496 L103.947416,98 L106.395416,98 Z M112.137297,98.18 C112.905297,98.18 113.589297,98.06 114.189297,97.82 C114.789297,97.58 115.254297,97.238 115.584297,96.794 C115.914297,96.35 116.079297,95.852 116.079297,95.3 C116.079297,94.604 115.860297,94.037 115.422297,93.599 C114.984297,93.161 114.315297,92.816 113.415297,92.564 C113.343297,92.54 113.133297,92.486 112.785297,92.402 C112.113297,92.27 111.594297,92.117 111.228297,91.943 C110.862297,91.769 110.679297,91.496 110.679297,91.124 C110.679297,90.8 110.811297,90.533 111.075297,90.323 C111.339297,90.113 111.681297,90.008 112.101297,90.008 C112.569297,90.008 112.941297,90.131 113.217297,90.377 C113.493297,90.623 113.631297,90.95 113.631297,91.358 L113.631297,91.358 L116.061297,91.358 C116.061297,90.758 115.896297,90.23 115.566297,89.774 C115.236297,89.318 114.774297,88.961 114.180297,88.703 C113.586297,88.445 112.899297,88.316 112.119297,88.316 C111.387297,88.316 110.736297,88.442 110.166297,88.694 C109.596297,88.946 109.152297,89.294 108.834297,89.738 C108.516297,90.182 108.357297,90.68 108.357297,91.232 C108.357297,91.94 108.636297,92.528 109.194297,92.996 C109.752297,93.464 110.589297,93.824 111.705297,94.076 C112.437297,94.244 112.956297,94.418 113.262297,94.598 C113.568297,94.778 113.721297,95.042 113.721297,95.39 C113.721297,95.606 113.661297,95.798 113.541297,95.966 C113.421297,96.134 113.244297,96.26 113.010297,96.344 C112.776297,96.428 112.497297,96.47 112.173297,96.47 C111.633297,96.47 111.201297,96.344 110.877297,96.092 C110.553297,95.84 110.379297,95.474 110.355297,94.994 L110.355297,94.994 L108.051297,94.994 C108.051297,95.606 108.231297,96.152 108.591297,96.632 C108.951297,97.112 109.446297,97.49 110.076297,97.766 C110.706297,98.042 111.393297,98.18 112.137297,98.18 Z M124.503141,98 L124.503141,94.22 L124.269141,88.406 L127.815141,98 L129.543141,98 L133.089141,88.388 L132.837141,94.22 L132.837141,98 L135.375141,98 L135.375141,85.202 L132.063141,85.202 L128.679141,94.724 L125.295141,85.202 L122.001141,85.202 L122.001141,98 L124.503141,98 Z M140.001141,98 L140.001141,91.7 C140.157141,91.328 140.397141,91.055 140.721141,90.881 C141.045141,90.707 141.453141,90.62 141.945141,90.62 C142.365141,90.62 142.665141,90.644 142.845141,90.692 L142.845141,90.692 L142.881141,88.424 C142.677141,88.352 142.413141,88.316 142.089141,88.316 C141.633141,88.316 141.225141,88.43 140.865141,88.658 C140.505141,88.886 140.193141,89.222 139.929141,89.666 L139.929141,89.666 L139.875141,88.496 L137.553141,88.496 L137.553141,98 L140.001141,98 Z M147.704985,98.18 C148.472985,98.18 149.156985,98.06 149.756985,97.82 C150.356985,97.58 150.821985,97.238 151.151985,96.794 C151.481985,96.35 151.646985,95.852 151.646985,95.3 C151.646985,94.604 151.427985,94.037 150.989985,93.599 C150.551985,93.161 149.882985,92.816 148.982985,92.564 C148.910985,92.54 148.700985,92.486 148.352985,92.402 C147.680985,92.27 147.161985,92.117 146.795985,91.943 C146.429985,91.769 146.246985,91.496 146.246985,91.124 C146.246985,90.8 146.378985,90.533 146.642985,90.323 C146.906985,90.113 147.248985,90.008 147.668985,90.008 C148.136985,90.008 148.508985,90.131 148.784985,90.377 C149.060985,90.623 149.198985,90.95 149.198985,91.358 L149.198985,91.358 L151.628985,91.358 C151.628985,90.758 151.463985,90.23 151.133985,89.774 C150.803985,89.318 150.341985,88.961 149.747985,88.703 C149.153985,88.445 148.466985,88.316 147.686985,88.316 C146.954985,88.316 146.303985,88.442 145.733985,88.694 C145.163985,88.946 144.719985,89.294 144.401985,89.738 C144.083985,90.182 143.924985,90.68 143.924985,91.232 C143.924985,91.94 144.203985,92.528 144.761985,92.996 C145.319985,93.464 146.156985,93.824 147.272985,94.076 C148.004985,94.244 148.523985,94.418 148.829985,94.598 C149.135985,94.778 149.288985,95.042 149.288985,95.39 C149.288985,95.606 149.228985,95.798 149.108985,95.966 C148.988985,96.134 148.811985,96.26 148.577985,96.344 C148.343985,96.428 148.064985,96.47 147.740985,96.47 C147.200985,96.47 146.768985,96.344 146.444985,96.092 C146.120985,95.84 145.946985,95.474 145.922985,94.994 L145.922985,94.994 L143.618985,94.994 C143.618985,95.606 143.798985,96.152 144.158985,96.632 C144.518985,97.112 145.013985,97.49 145.643985,97.766 C146.273985,98.042 146.960985,98.18 147.704985,98.18 Z M155.444846,98 C155.888846,98 156.266846,97.844 156.578846,97.532 C156.890846,97.22 157.046846,96.836 157.046846,96.38 C157.046846,95.936 156.890846,95.561 156.578846,95.255 C156.266846,94.949 155.888846,94.796 155.444846,94.796 C154.976846,94.796 154.592846,94.949 154.292846,95.255 C153.992846,95.561 153.842846,95.936 153.842846,96.38 C153.842846,96.836 153.992846,97.22 154.292846,97.532 C154.592846,97.844 154.976846,98 155.444846,98 Z M168.368596,98.162 C169.316596,98.162 170.138596,98.021 170.834596,97.739 C171.530596,97.457 172.064596,97.049 172.436596,96.515 C172.808596,95.981 172.994596,95.354 172.994596,94.634 C172.994596,93.938 172.826596,93.326 172.490596,92.798 C172.154596,92.27 171.644596,91.814 170.960596,91.43 C170.648596,91.25 170.315596,91.094 169.961596,90.962 C169.607596,90.83 169.238596,90.704 168.854596,90.584 C168.386596,90.428 167.999596,90.287 167.693596,90.161 C167.387596,90.035 167.114596,89.894 166.874596,89.738 C166.622596,89.57 166.436596,89.39 166.316596,89.198 C166.196596,89.006 166.136596,88.796 166.136596,88.568 C166.136596,88.256 166.220596,87.977 166.388596,87.731 C166.556596,87.485 166.802596,87.296 167.126596,87.164 C167.450596,87.032 167.828596,86.966 168.260596,86.966 C168.716596,86.966 169.109596,87.044 169.439596,87.2 C169.769596,87.356 170.021596,87.584 170.195596,87.884 C170.369596,88.184 170.456596,88.538 170.456596,88.946 L170.456596,88.946 L172.994596,88.946 C172.994596,88.178 172.790596,87.494 172.382596,86.894 C171.974596,86.294 171.416596,85.829 170.708596,85.499 C170.000596,85.169 169.202596,85.004 168.314596,85.004 C167.450596,85.004 166.661596,85.148 165.947596,85.436 C165.233596,85.724 164.666596,86.138 164.246596,86.678 C163.826596,87.218 163.616596,87.848 163.616596,88.568 C163.616596,89.252 163.811596,89.864 164.201596,90.404 C164.591596,90.944 165.188596,91.412 165.992596,91.808 C166.256596,91.94 166.541596,92.063 166.847596,92.177 C167.153596,92.291 167.474596,92.396 167.810596,92.492 C168.302596,92.66 168.692596,92.801 168.980596,92.915 C169.268596,93.029 169.532596,93.17 169.772596,93.338 C170.012596,93.506 170.186596,93.695 170.294596,93.905 C170.402596,94.115 170.456596,94.364 170.456596,94.652 C170.456596,94.976 170.375596,95.255 170.213596,95.489 C170.051596,95.723 169.814596,95.903 169.502596,96.029 C169.190596,96.155 168.812596,96.218 168.368596,96.218 C167.516596,96.218 166.868596,96.032 166.424596,95.66 C165.980596,95.288 165.758596,94.742 165.758596,94.022 L165.758596,94.022 L163.220596,94.022 C163.220596,94.898 163.463596,95.648 163.949596,96.272 C164.435596,96.896 165.068596,97.367 165.848596,97.685 C166.628596,98.003 167.468596,98.162 168.368596,98.162 Z M178.7544,98.18 C179.6304,98.18 180.4074,97.982 181.0854,97.586 C181.7634,97.19 182.2884,96.629 182.6604,95.903 C183.0324,95.177 183.2184,94.322 183.2184,93.338 L183.2184,93.338 L183.2184,93.23 C183.2184,92.234 183.0354,91.367 182.6694,90.629 C182.3034,89.891 181.7814,89.321 181.1034,88.919 C180.4254,88.517 179.6364,88.316 178.7364,88.316 C177.7764,88.316 176.9574,88.532 176.2794,88.964 C175.6014,89.396 175.0884,89.981 174.7404,90.719 C174.3924,91.457 174.2304,92.27 174.2544,93.158 L174.2544,93.158 L174.2544,93.5 C174.2784,94.448 174.4794,95.273 174.8574,95.975 C175.2354,96.677 175.7574,97.22 176.4234,97.604 C177.0894,97.988 177.8664,98.18 178.7544,98.18 Z M178.7544,96.272 C178.3224,96.272 177.9504,96.158 177.6384,95.93 C177.3264,95.702 177.0894,95.369 176.9274,94.931 C176.7654,94.493 176.6844,93.962 176.6844,93.338 L176.6844,93.338 L176.6844,92.96 C176.7084,92.372 176.8044,91.871 176.9724,91.457 C177.1404,91.043 177.3744,90.734 177.6744,90.53 C177.9744,90.326 178.3284,90.224 178.7364,90.224 C179.1684,90.224 179.5404,90.338 179.8524,90.566 C180.1644,90.794 180.4014,91.127 180.5634,91.565 C180.7254,92.003 180.8064,92.534 180.8064,93.158 L180.8064,93.158 L180.8064,93.392 C180.8064,94.016 180.7224,94.541 180.5544,94.967 C180.3864,95.393 180.1524,95.717 179.8524,95.939 C179.5524,96.161 179.1864,96.272 178.7544,96.272 Z M187.41217,98 L187.41217,84.5 L184.96417,84.5 L184.96417,98 L187.41217,98 Z M192.740051,98.18 C193.244051,98.18 193.742051,98.108 194.234051,97.964 L194.234051,97.964 L194.234051,96.164 C193.994051,96.212 193.742051,96.236 193.478051,96.236 C193.106051,96.236 192.848051,96.158 192.704051,96.002 C192.560051,95.846 192.488051,95.576 192.488051,95.192 L192.488051,95.192 L192.488051,90.224 L194.144051,90.224 L194.144051,88.496 L192.488051,88.496 L192.488051,86.156 L190.058051,86.156 L190.058051,88.496 L188.636051,88.496 L188.636051,90.224 L190.058051,90.224 L190.058051,95.408 C190.058051,96.332 190.280051,97.025 190.724051,97.487 C191.168051,97.949 191.840051,98.18 192.740051,98.18 Z M198.445877,98.18 C198.949877,98.18 199.405877,98.09 199.813877,97.91 C200.221877,97.73 200.587877,97.454 200.911877,97.082 C200.971877,97.478 201.055877,97.784 201.163877,98 L201.163877,98 L203.611877,98 L203.611877,97.856 C203.383877,97.376 203.263877,96.692 203.251877,95.804 L203.251877,95.804 L203.251877,91.538 C203.227877,90.542 202.879877,89.756 202.207877,89.18 C201.535877,88.604 200.617877,88.316 199.453877,88.316 C198.685877,88.316 197.998877,88.448 197.392877,88.712 C196.786877,88.976 196.312877,89.336 195.970877,89.792 C195.628877,90.248 195.457877,90.752 195.457877,91.304 L195.457877,91.304 L197.869877,91.304 C197.869877,91.052 197.929877,90.836 198.049877,90.656 C198.169877,90.476 198.340877,90.335 198.562877,90.233 C198.784877,90.131 199.039877,90.08 199.327877,90.08 C199.819877,90.08 200.191877,90.212 200.443877,90.476 C200.695877,90.74 200.821877,91.118 200.821877,91.61 L200.821877,91.61 L200.821877,92.204 L199.633877,92.204 C198.217877,92.204 197.128877,92.471 196.366877,93.005 C195.604877,93.539 195.223877,94.316 195.223877,95.336 C195.223877,95.876 195.367877,96.359 195.655877,96.785 C195.943877,97.211 196.330877,97.55 196.816877,97.802 C197.302877,98.054 197.845877,98.18 198.445877,98.18 Z M198.985877,96.344 C198.589877,96.344 198.271877,96.236 198.031877,96.02 C197.791877,95.804 197.671877,95.516 197.671877,95.156 C197.671877,94.64 197.848877,94.256 198.202877,94.004 C198.556877,93.752 199.087877,93.626 199.795877,93.626 L199.795877,93.626 L200.821877,93.626 L200.821877,95.318 C200.665877,95.618 200.419877,95.864 200.083877,96.056 C199.747877,96.248 199.381877,96.344 198.985877,96.344 Z M207.643796,98 L207.643796,91.268 C207.811796,90.932 208.042796,90.677 208.336796,90.503 C208.630796,90.329 208.969796,90.242 209.353796,90.242 C209.905796,90.242 210.304796,90.371 210.550796,90.629 C210.796796,90.887 210.919796,91.304 210.919796,91.88 L210.919796,91.88 L210.919796,98 L213.349796,98 L213.349796,91.808 C213.337796,90.644 213.082796,89.771 212.584796,89.189 C212.086796,88.607 211.339796,88.316 210.343796,88.316 C209.755796,88.316 209.233796,88.427 208.777796,88.649 C208.321796,88.871 207.925796,89.204 207.589796,89.648 L207.589796,89.648 L207.499796,88.496 L205.213796,88.496 L205.213796,98 L207.643796,98 Z M216.679625,87.254 C217.087625,87.254 217.417625,87.137 217.669625,86.903 C217.921625,86.669 218.047625,86.372 218.047625,86.012 C218.047625,85.652 217.921625,85.355 217.669625,85.121 C217.417625,84.887 217.087625,84.77 216.679625,84.77 C216.259625,84.77 215.926625,84.887 215.680625,85.121 C215.434625,85.355 215.311625,85.652 215.311625,86.012 C215.311625,86.384 215.434625,86.684 215.680625,86.912 C215.926625,87.14 216.259625,87.254 216.679625,87.254 Z M217.903625,98 L217.903625,88.496 L215.455625,88.496 L215.455625,98 L217.903625,98 Z" id="GoodMorning,boysandgirlsI'myourEnglishteacherMynameisMrs.Soltani" fill="#353535" fill-rule="nonzero"></path>
            </g>
        </g>
    </g>
</svg>