<?xml version="1.0" encoding="UTF-8"?>
<svg width="296px" height="172px" viewBox="0 0 296 172" version="1.1" xmlns="http://www.w3.org/2000/svg" xmlns:xlink="http://www.w3.org/1999/xlink">
    <title>chat j</title>
    <defs>
        <linearGradient x1="50%" y1="0%" x2="50%" y2="100%" id="linearGradient-1">
            <stop stop-color="#FAFAFC" offset="0%"></stop>
            <stop stop-color="#F2F2F7" offset="100%"></stop>
        </linearGradient>
        <linearGradient x1="50%" y1="0%" x2="50%" y2="100%" id="linearGradient-2">
            <stop stop-color="#FFE913" offset="0%"></stop>
            <stop stop-color="#FFCE08" offset="100%"></stop>
        </linearGradient>
        <path d="M268,2.84217094e-14 C277.941125,2.65955543e-14 286,8.0588745 286,18 L286,118 C286,127.941125 277.941125,136 268,136 L258.329489,136.000498 C257.990843,142.794019 259.951269,149.559786 263.977131,155.163522 L263.977131,155.163522 L268.895818,162.010011 L229.984,136 L18,136 C8.0588745,136 1.21743675e-15,127.941125 0,118 L0,18 C-1.21743675e-15,8.0588745 8.0588745,3.02478646e-14 18,2.84217094e-14 L268,2.84217094e-14 Z" id="path-3"></path>
        <filter x="-5.8%" y="-7.1%" width="111.5%" height="119.7%" filterUnits="objectBoundingBox" id="filter-4">
            <feMorphology radius="4" operator="erode" in="SourceAlpha" result="shadowSpreadOuter1"></feMorphology>
            <feOffset dx="0" dy="18" in="shadowSpreadOuter1" result="shadowOffsetOuter1"></feOffset>
            <feGaussianBlur stdDeviation="6.5" in="shadowOffsetOuter1" result="shadowBlurOuter1"></feGaussianBlur>
            <feComposite in="shadowBlurOuter1" in2="SourceAlpha" operator="out" result="shadowBlurOuter1"></feComposite>
            <feColorMatrix values="0 0 0 0 0   0 0 0 0 0   0 0 0 0 0  0 0 0 0.16 0" type="matrix" in="shadowBlurOuter1"></feColorMatrix>
        </filter>
    </defs>
    <g id="Page-1" stroke="none" stroke-width="1" fill="none" fill-rule="evenodd">
        <g id="Apple-TV" transform="translate(-637.000000, -585.000000)">
            <g id="chat-j" transform="translate(642.000000, 585.000000)">
                <g id="Combined-Shape-Copy" transform="translate(143.000000, 81.005005) scale(-1, 1) translate(-143.000000, -81.005005) ">
                    <use fill="black" fill-opacity="1" filter="url(#filter-4)" xlink:href="#path-3"></use>
                    <path stroke="url(#linearGradient-2)" stroke-width="2" d="M268,1 L18,1 C13.3055796,1 9.05557963,2.90278981 5.97918472,5.97918472 C2.90278981,9.05557963 1,13.3055796 1,18 L1,118 C1,122.69442 2.90278981,126.94442 5.97918472,130.020815 C9.05557963,133.09721 13.3055796,135 18,135 L230.287443,135 L264.864385,158.112429 L263.16499,155.746984 L262.84625,155.294877 C258.718319,149.325817 256.817327,142.150806 257.392622,135.000547 L267.999948,135 C272.69442,135 276.94442,133.09721 280.020815,130.020815 C283.09721,126.94442 285,122.69442 285,118 L285,18 C285,13.3055796 283.09721,9.05557963 280.020815,5.97918472 C276.94442,2.90278981 272.69442,1 268,1 Z" stroke-linejoin="square" fill="url(#linearGradient-1)" fill-rule="evenodd"></path>
                </g>
                <path d="M31.786,44 L31.786,33.182 L35.746,33.182 L35.746,31.202 L25.36,31.202 L25.36,33.182 L29.266,33.182 L29.266,44 L31.786,44 Z M39.4898044,44 L39.4898044,37.196 C39.6578044,36.896 39.8858044,36.662 40.1738044,36.494 C40.4618044,36.326 40.8038044,36.242 41.1998044,36.242 C41.7518044,36.242 42.1508044,36.374 42.3968044,36.638 C42.6428044,36.902 42.7658044,37.328 42.7658044,37.916 L42.7658044,37.916 L42.7658044,44 L45.1958044,44 L45.1958044,37.898 C45.1838044,36.71 44.9168044,35.816 44.3948044,35.216 C43.8728044,34.616 43.0958044,34.316 42.0638044,34.316 C41.5358044,34.316 41.0558044,34.421 40.6238044,34.631 C40.1918044,34.841 39.8138044,35.15 39.4898044,35.558 L39.4898044,35.558 L39.4898044,30.5 L37.0418044,30.5 L37.0418044,44 L39.4898044,44 Z M51.4956331,44.18 C52.2876331,44.18 53.0046331,44.027 53.6466331,43.721 C54.2886331,43.415 54.8016331,42.986 55.1856331,42.434 L55.1856331,42.434 L53.9796331,41.174 C53.6916331,41.534 53.3556331,41.807 52.9716331,41.993 C52.5876331,42.179 52.1496331,42.272 51.6576331,42.272 C51.2136331,42.272 50.8236331,42.179 50.4876331,41.993 C50.1516331,41.807 49.8786331,41.546 49.6686331,41.21 C49.4586331,40.874 49.3296331,40.478 49.2816331,40.022 L49.2816331,40.022 L49.2816331,40.004 L55.3836331,40.004 L55.3836331,39.032 C55.3836331,38.048 55.2156331,37.202 54.8796331,36.494 C54.5436331,35.786 54.0636331,35.246 53.4396331,34.874 C52.8156331,34.502 52.0776331,34.316 51.2256331,34.316 C50.3136331,34.316 49.5246331,34.529 48.8586331,34.955 C48.1926331,35.381 47.6856331,35.963 47.3376331,36.701 C46.9896331,37.439 46.8156331,38.282 46.8156331,39.23 L46.8156331,39.23 L46.8156331,39.482 C46.8156331,40.418 47.0106331,41.24 47.4006331,41.948 C47.7906331,42.656 48.3396331,43.205 49.0476331,43.595 C49.7556331,43.985 50.5716331,44.18 51.4956331,44.18 Z M52.9896331,38.348 L49.2996331,38.348 C49.3476331,37.892 49.4586331,37.505 49.6326331,37.187 C49.8066331,36.869 50.0256331,36.629 50.2896331,36.467 C50.5536331,36.305 50.8596331,36.224 51.2076331,36.224 C51.5796331,36.224 51.8976331,36.299 52.1616331,36.449 C52.4256331,36.599 52.6266331,36.821 52.7646331,37.115 C52.9026331,37.409 52.9776331,37.76 52.9896331,38.168 L52.9896331,38.168 L52.9896331,38.348 Z M64.0775144,44.18 C64.5815144,44.18 65.0795144,44.108 65.5715144,43.964 L65.5715144,43.964 L65.5715144,42.164 C65.3315144,42.212 65.0795144,42.236 64.8155144,42.236 C64.4435144,42.236 64.1855144,42.158 64.0415144,42.002 C63.8975144,41.846 63.8255144,41.576 63.8255144,41.192 L63.8255144,41.192 L63.8255144,36.224 L65.4815144,36.224 L65.4815144,34.496 L63.8255144,34.496 L63.8255144,32.156 L61.3955144,32.156 L61.3955144,34.496 L59.9735144,34.496 L59.9735144,36.224 L61.3955144,36.224 L61.3955144,41.408 C61.3955144,42.332 61.6175144,43.025 62.0615144,43.487 C62.5055144,43.949 63.1775144,44.18 64.0775144,44.18 Z M70.8093408,44.18 C71.6853408,44.18 72.4623408,43.982 73.1403408,43.586 C73.8183408,43.19 74.3433408,42.629 74.7153408,41.903 C75.0873408,41.177 75.2733408,40.322 75.2733408,39.338 L75.2733408,39.338 L75.2733408,39.23 C75.2733408,38.234 75.0903408,37.367 74.7243408,36.629 C74.3583408,35.891 73.8363408,35.321 73.1583408,34.919 C72.4803408,34.517 71.6913408,34.316 70.7913408,34.316 C69.8313408,34.316 69.0123408,34.532 68.3343408,34.964 C67.6563408,35.396 67.1433408,35.981 66.7953408,36.719 C66.4473408,37.457 66.2853408,38.27 66.3093408,39.158 L66.3093408,39.158 L66.3093408,39.5 C66.3333408,40.448 66.5343408,41.273 66.9123408,41.975 C67.2903408,42.677 67.8123408,43.22 68.4783408,43.604 C69.1443408,43.988 69.9213408,44.18 70.8093408,44.18 Z M70.8093408,42.272 C70.3773408,42.272 70.0053408,42.158 69.6933408,41.93 C69.3813408,41.702 69.1443408,41.369 68.9823408,40.931 C68.8203408,40.493 68.7393408,39.962 68.7393408,39.338 L68.7393408,39.338 L68.7393408,38.96 C68.7633408,38.372 68.8593408,37.871 69.0273408,37.457 C69.1953408,37.043 69.4293408,36.734 69.7293408,36.53 C70.0293408,36.326 70.3833408,36.224 70.7913408,36.224 C71.2233408,36.224 71.5953408,36.338 71.9073408,36.566 C72.2193408,36.794 72.4563408,37.127 72.6183408,37.565 C72.7803408,38.003 72.8613408,38.534 72.8613408,39.158 L72.8613408,39.158 L72.8613408,39.392 C72.8613408,40.016 72.7773408,40.541 72.6093408,40.967 C72.4413408,41.393 72.2073408,41.717 71.9073408,41.939 C71.6073408,42.161 71.2413408,42.272 70.8093408,42.272 Z M79.3231101,47.654 L79.3231101,43.172 C79.6231101,43.508 79.9711101,43.76 80.3671101,43.928 C80.7631101,44.096 81.2071101,44.18 81.6991101,44.18 C82.4431101,44.18 83.0941101,43.979 83.6521101,43.577 C84.2101101,43.175 84.6391101,42.608 84.9391101,41.876 C85.2391101,41.144 85.3891101,40.298 85.3891101,39.338 L85.3891101,39.338 L85.3891101,39.176 C85.3891101,37.664 85.0621101,36.476 84.4081101,35.612 C83.7541101,34.748 82.8451101,34.316 81.6811101,34.316 C81.1651101,34.316 80.7031101,34.412 80.2951101,34.604 C79.8871101,34.796 79.5331101,35.078 79.2331101,35.45 L79.2331101,35.45 L79.1431101,34.496 L76.8751101,34.496 L76.8751101,47.654 L79.3231101,47.654 Z M81.0691101,42.272 C80.6611101,42.272 80.3101101,42.191 80.0161101,42.029 C79.7221101,41.867 79.4911101,41.618 79.3231101,41.282 L79.3231101,41.282 L79.3231101,37.214 C79.4911101,36.89 79.7191101,36.647 80.0071101,36.485 C80.2951101,36.323 80.6431101,36.242 81.0511101,36.242 C81.6631101,36.242 82.1341101,36.491 82.4641101,36.989 C82.7941101,37.487 82.9591101,38.204 82.9591101,39.14 L82.9591101,39.14 L82.9591101,39.374 C82.9471101,40.334 82.7791101,41.057 82.4551101,41.543 C82.1311101,42.029 81.6691101,42.272 81.0691101,42.272 Z M88.3590464,33.254 C88.7670464,33.254 89.0970464,33.137 89.3490464,32.903 C89.6010464,32.669 89.7270464,32.372 89.7270464,32.012 C89.7270464,31.652 89.6010464,31.355 89.3490464,31.121 C89.0970464,30.887 88.7670464,30.77 88.3590464,30.77 C87.9390464,30.77 87.6060464,30.887 87.3600464,31.121 C87.1140464,31.355 86.9910464,31.652 86.9910464,32.012 C86.9910464,32.384 87.1140464,32.684 87.3600464,32.912 C87.6060464,33.14 87.9390464,33.254 88.3590464,33.254 Z M89.5830464,44 L89.5830464,34.496 L87.1350464,34.496 L87.1350464,44 L89.5830464,44 Z M95.6849277,44.18 C96.4289277,44.18 97.0979277,44.027 97.6919277,43.721 C98.2859277,43.415 98.7509277,43.004 99.0869277,42.488 C99.4229277,41.972 99.5969277,41.396 99.6089277,40.76 L99.6089277,40.76 L97.3229277,40.76 C97.3109277,41.216 97.1489277,41.582 96.8369277,41.858 C96.5249277,42.134 96.1289277,42.272 95.6489277,42.272 C95.0009277,42.272 94.5179277,42.038 94.1999277,41.57 C93.8819277,41.102 93.7289277,40.376 93.7409277,39.392 L93.7409277,39.392 L93.7409277,39.104 C93.7529277,38.132 93.9149277,37.409 94.2269277,36.935 C94.5389277,36.461 95.0069277,36.224 95.6309277,36.224 C96.1229277,36.224 96.5249277,36.383 96.8369277,36.701 C97.1489277,37.019 97.3109277,37.448 97.3229277,37.988 L97.3229277,37.988 L99.6089277,37.988 C99.5969277,37.244 99.4259277,36.596 99.0959277,36.044 C98.7659277,35.492 98.3069277,35.066 97.7189277,34.766 C97.1309277,34.466 96.4469277,34.316 95.6669277,34.316 C94.7429277,34.316 93.9539277,34.523 93.2999277,34.937 C92.6459277,35.351 92.1509277,35.918 91.8149277,36.638 C91.4789277,37.358 91.3109277,38.18 91.3109277,39.104 L91.3109277,39.104 L91.3109277,39.302 C91.3109277,40.31 91.4879277,41.18 91.8419277,41.912 C92.1959277,42.644 92.6999277,43.205 93.3539277,43.595 C94.0079277,43.985 94.7849277,44.18 95.6849277,44.18 Z M108.26684,44 L108.26684,36.224 L110.19284,36.224 L110.19284,34.496 L108.26684,34.496 L108.26684,33.65 C108.26684,33.194 108.38984,32.846 108.63584,32.606 C108.88184,32.366 109.24484,32.246 109.72484,32.246 C110.07284,32.246 110.33684,32.27 110.51684,32.318 L110.51684,32.318 L110.55284,30.482 C110.09684,30.374 109.67084,30.32 109.27484,30.32 C108.18284,30.32 107.33684,30.611 106.73684,31.193 C106.13684,31.775 105.83684,32.594 105.83684,33.65 L105.83684,33.65 L105.83684,34.496 L104.39684,34.496 L104.39684,36.224 L105.83684,36.224 L105.83684,44 L108.26684,44 Z M115.628616,44.18 C116.504616,44.18 117.281616,43.982 117.959616,43.586 C118.637616,43.19 119.162616,42.629 119.534616,41.903 C119.906616,41.177 120.092616,40.322 120.092616,39.338 L120.092616,39.338 L120.092616,39.23 C120.092616,38.234 119.909616,37.367 119.543616,36.629 C119.177616,35.891 118.655616,35.321 117.977616,34.919 C117.299616,34.517 116.510616,34.316 115.610616,34.316 C114.650616,34.316 113.831616,34.532 113.153616,34.964 C112.475616,35.396 111.962616,35.981 111.614616,36.719 C111.266616,37.457 111.104616,38.27 111.128616,39.158 L111.128616,39.158 L111.128616,39.5 C111.152616,40.448 111.353616,41.273 111.731616,41.975 C112.109616,42.677 112.631616,43.22 113.297616,43.604 C113.963616,43.988 114.740616,44.18 115.628616,44.18 Z M115.628616,42.272 C115.196616,42.272 114.824616,42.158 114.512616,41.93 C114.200616,41.702 113.963616,41.369 113.801616,40.931 C113.639616,40.493 113.558616,39.962 113.558616,39.338 L113.558616,39.338 L113.558616,38.96 C113.582616,38.372 113.678616,37.871 113.846616,37.457 C114.014616,37.043 114.248616,36.734 114.548616,36.53 C114.848616,36.326 115.202616,36.224 115.610616,36.224 C116.042616,36.224 116.414616,36.338 116.726616,36.566 C117.038616,36.794 117.275616,37.127 117.437616,37.565 C117.599616,38.003 117.680616,38.534 117.680616,39.158 L117.680616,39.158 L117.680616,39.392 C117.680616,40.016 117.596616,40.541 117.428616,40.967 C117.260616,41.393 117.026616,41.717 116.726616,41.939 C116.426616,42.161 116.060616,42.272 115.628616,42.272 Z M124.142385,44 L124.142385,37.7 C124.298385,37.328 124.538385,37.055 124.862385,36.881 C125.186385,36.707 125.594385,36.62 126.086385,36.62 C126.506385,36.62 126.806385,36.644 126.986385,36.692 L126.986385,36.692 L127.022385,34.424 C126.818385,34.352 126.554385,34.316 126.230385,34.316 C125.774385,34.316 125.366385,34.43 125.006385,34.658 C124.646385,34.886 124.334385,35.222 124.070385,35.666 L124.070385,35.666 L124.016385,34.496 L121.694385,34.496 L121.694385,44 L124.142385,44 Z M135.464211,44.18 C135.968211,44.18 136.466211,44.108 136.958211,43.964 L136.958211,43.964 L136.958211,42.164 C136.718211,42.212 136.466211,42.236 136.202211,42.236 C135.830211,42.236 135.572211,42.158 135.428211,42.002 C135.284211,41.846 135.212211,41.576 135.212211,41.192 L135.212211,41.192 L135.212211,36.224 L136.868211,36.224 L136.868211,34.496 L135.212211,34.496 L135.212211,32.156 L132.782211,32.156 L132.782211,34.496 L131.360211,34.496 L131.360211,36.224 L132.782211,36.224 L132.782211,41.408 C132.782211,42.332 133.004211,43.025 133.448211,43.487 C133.892211,43.949 134.564211,44.18 135.464211,44.18 Z M142.196038,44.18 C143.072038,44.18 143.849038,43.982 144.527038,43.586 C145.205038,43.19 145.730038,42.629 146.102038,41.903 C146.474038,41.177 146.660038,40.322 146.660038,39.338 L146.660038,39.338 L146.660038,39.23 C146.660038,38.234 146.477038,37.367 146.111038,36.629 C145.745038,35.891 145.223038,35.321 144.545038,34.919 C143.867038,34.517 143.078038,34.316 142.178038,34.316 C141.218038,34.316 140.399038,34.532 139.721038,34.964 C139.043038,35.396 138.530038,35.981 138.182038,36.719 C137.834038,37.457 137.672038,38.27 137.696038,39.158 L137.696038,39.158 L137.696038,39.5 C137.720038,40.448 137.921038,41.273 138.299038,41.975 C138.677038,42.677 139.199038,43.22 139.865038,43.604 C140.531038,43.988 141.308038,44.18 142.196038,44.18 Z M142.196038,42.272 C141.764038,42.272 141.392038,42.158 141.080038,41.93 C140.768038,41.702 140.531038,41.369 140.369038,40.931 C140.207038,40.493 140.126038,39.962 140.126038,39.338 L140.126038,39.338 L140.126038,38.96 C140.150038,38.372 140.246038,37.871 140.414038,37.457 C140.582038,37.043 140.816038,36.734 141.116038,36.53 C141.416038,36.326 141.770038,36.224 142.178038,36.224 C142.610038,36.224 142.982038,36.338 143.294038,36.566 C143.606038,36.794 143.843038,37.127 144.005038,37.565 C144.167038,38.003 144.248038,38.534 144.248038,39.158 L144.248038,39.158 L144.248038,39.392 C144.248038,40.016 144.164038,40.541 143.996038,40.967 C143.828038,41.393 143.594038,41.717 143.294038,41.939 C142.994038,42.161 142.628038,42.272 142.196038,42.272 Z M151.591807,44.18 C152.107807,44.18 152.572807,44.081 152.986807,43.883 C153.400807,43.685 153.757807,43.382 154.057807,42.974 L154.057807,42.974 L154.183807,44 L156.379807,44 L156.379807,30.5 L153.949807,30.5 L153.949807,35.378 C153.649807,35.018 153.301807,34.751 152.905807,34.577 C152.509807,34.403 152.077807,34.316 151.609807,34.316 C150.853807,34.316 150.193807,34.514 149.629807,34.91 C149.065807,35.306 148.630807,35.867 148.324807,36.593 C148.018807,37.319 147.865807,38.18 147.865807,39.176 C147.865807,40.196 148.021807,41.084 148.333807,41.84 C148.645807,42.596 149.080807,43.175 149.638807,43.577 C150.196807,43.979 150.847807,44.18 151.591807,44.18 Z M152.203807,42.254 C151.591807,42.254 151.123807,42.008 150.799807,41.516 C150.475807,41.024 150.313807,40.304 150.313807,39.356 L150.313807,39.356 L150.313807,38.924 C150.337807,38.048 150.514807,37.382 150.844807,36.926 C151.174807,36.47 151.633807,36.242 152.221807,36.242 C153.013807,36.242 153.589807,36.59 153.949807,37.286 L153.949807,37.286 L153.949807,41.21 C153.769807,41.558 153.535807,41.819 153.247807,41.993 C152.959807,42.167 152.611807,42.254 152.203807,42.254 Z M161.239596,44.18 C161.743596,44.18 162.199596,44.09 162.607596,43.91 C163.015596,43.73 163.381596,43.454 163.705596,43.082 C163.765596,43.478 163.849596,43.784 163.957596,44 L163.957596,44 L166.405596,44 L166.405596,43.856 C166.177596,43.376 166.057596,42.692 166.045596,41.804 L166.045596,41.804 L166.045596,37.538 C166.021596,36.542 165.673596,35.756 165.001596,35.18 C164.329596,34.604 163.411596,34.316 162.247596,34.316 C161.479596,34.316 160.792596,34.448 160.186596,34.712 C159.580596,34.976 159.106596,35.336 158.764596,35.792 C158.422596,36.248 158.251596,36.752 158.251596,37.304 L158.251596,37.304 L160.663596,37.304 C160.663596,37.052 160.723596,36.836 160.843596,36.656 C160.963596,36.476 161.134596,36.335 161.356596,36.233 C161.578596,36.131 161.833596,36.08 162.121596,36.08 C162.613596,36.08 162.985596,36.212 163.237596,36.476 C163.489596,36.74 163.615596,37.118 163.615596,37.61 L163.615596,37.61 L163.615596,38.204 L162.427596,38.204 C161.011596,38.204 159.922596,38.471 159.160596,39.005 C158.398596,39.539 158.017596,40.316 158.017596,41.336 C158.017596,41.876 158.161596,42.359 158.449596,42.785 C158.737596,43.211 159.124596,43.55 159.610596,43.802 C160.096596,44.054 160.639596,44.18 161.239596,44.18 Z M161.779596,42.344 C161.383596,42.344 161.065596,42.236 160.825596,42.02 C160.585596,41.804 160.465596,41.516 160.465596,41.156 C160.465596,40.64 160.642596,40.256 160.996596,40.004 C161.350596,39.752 161.881596,39.626 162.589596,39.626 L162.589596,39.626 L163.615596,39.626 L163.615596,41.318 C163.459596,41.618 163.213596,41.864 162.877596,42.056 C162.541596,42.248 162.175596,42.344 161.779596,42.344 Z M169.051515,47.834 C169.711515,47.834 170.275515,47.678 170.743515,47.366 C171.211515,47.054 171.583515,46.58 171.859515,45.944 L171.859515,45.944 L172.021515,45.548 L175.873515,34.496 L173.281515,34.496 L171.553515,40.166 L171.445515,40.562 L169.591515,34.496 L166.981515,34.496 L170.329515,44.018 L170.023515,44.774 C169.879515,45.194 169.681515,45.491 169.429515,45.665 C169.177515,45.839 168.817515,45.914 168.349515,45.89 C168.217515,45.89 168.085515,45.884 167.953515,45.872 L167.953515,45.872 L167.953515,47.69 C168.337515,47.774 168.703515,47.822 169.051515,47.834 Z M182.317497,33.254 C182.725497,33.254 183.055497,33.137 183.307497,32.903 C183.559497,32.669 183.685497,32.372 183.685497,32.012 C183.685497,31.652 183.559497,31.355 183.307497,31.121 C183.055497,30.887 182.725497,30.77 182.317497,30.77 C181.897497,30.77 181.564497,30.887 181.318497,31.121 C181.072497,31.355 180.949497,31.652 180.949497,32.012 C180.949497,32.384 181.072497,32.684 181.318497,32.912 C181.564497,33.14 181.897497,33.254 182.317497,33.254 Z M183.541497,44 L183.541497,34.496 L181.093497,34.496 L181.093497,44 L183.541497,44 Z M189.283379,44.18 C190.051379,44.18 190.735379,44.06 191.335379,43.82 C191.935379,43.58 192.400379,43.238 192.730379,42.794 C193.060379,42.35 193.225379,41.852 193.225379,41.3 C193.225379,40.604 193.006379,40.037 192.568379,39.599 C192.130379,39.161 191.461379,38.816 190.561379,38.564 C190.489379,38.54 190.279379,38.486 189.931379,38.402 C189.259379,38.27 188.740379,38.117 188.374379,37.943 C188.008379,37.769 187.825379,37.496 187.825379,37.124 C187.825379,36.8 187.957379,36.533 188.221379,36.323 C188.485379,36.113 188.827379,36.008 189.247379,36.008 C189.715379,36.008 190.087379,36.131 190.363379,36.377 C190.639379,36.623 190.777379,36.95 190.777379,37.358 L190.777379,37.358 L193.207379,37.358 C193.207379,36.758 193.042379,36.23 192.712379,35.774 C192.382379,35.318 191.920379,34.961 191.326379,34.703 C190.732379,34.445 190.045379,34.316 189.265379,34.316 C188.533379,34.316 187.882379,34.442 187.312379,34.694 C186.742379,34.946 186.298379,35.294 185.980379,35.738 C185.662379,36.182 185.503379,36.68 185.503379,37.232 C185.503379,37.94 185.782379,38.528 186.340379,38.996 C186.898379,39.464 187.735379,39.824 188.851379,40.076 C189.583379,40.244 190.102379,40.418 190.408379,40.598 C190.714379,40.778 190.867379,41.042 190.867379,41.39 C190.867379,41.606 190.807379,41.798 190.687379,41.966 C190.567379,42.134 190.390379,42.26 190.156379,42.344 C189.922379,42.428 189.643379,42.47 189.319379,42.47 C188.779379,42.47 188.347379,42.344 188.023379,42.092 C187.699379,41.84 187.525379,41.474 187.501379,40.994 L187.501379,40.994 L185.197379,40.994 C185.197379,41.606 185.377379,42.152 185.737379,42.632 C186.097379,43.112 186.592379,43.49 187.222379,43.766 C187.852379,44.042 188.539379,44.18 189.283379,44.18 Z M30.724,71 L32.614,63.782 L32.902,62.504 L33.208,63.782 L35.062,71 L37.6,71 L40.48,58.202 L37.96,58.202 L36.394,65.888 L36.178,67.202 L35.89,65.96 L33.982,58.202 L31.84,58.202 L29.914,65.96 L29.626,67.202 L29.41,65.906 L27.844,58.202 L25.324,58.202 L28.204,71 L30.724,71 Z M44.1518528,71 L44.1518528,64.196 C44.3198528,63.896 44.5478528,63.662 44.8358528,63.494 C45.1238528,63.326 45.4658528,63.242 45.8618528,63.242 C46.4138528,63.242 46.8128528,63.374 47.0588528,63.638 C47.3048528,63.902 47.4278528,64.328 47.4278528,64.916 L47.4278528,64.916 L47.4278528,71 L49.8578528,71 L49.8578528,64.898 C49.8458528,63.71 49.5788528,62.816 49.0568528,62.216 C48.5348528,61.616 47.7578528,61.316 46.7258528,61.316 C46.1978528,61.316 45.7178528,61.421 45.2858528,61.631 C44.8538528,61.841 44.4758528,62.15 44.1518528,62.558 L44.1518528,62.558 L44.1518528,57.5 L41.7038528,57.5 L41.7038528,71 L44.1518528,71 Z M54.6636814,71.18 C55.1676814,71.18 55.6236814,71.09 56.0316814,70.91 C56.4396814,70.73 56.8056814,70.454 57.1296814,70.082 C57.1896814,70.478 57.2736814,70.784 57.3816814,71 L57.3816814,71 L59.8296814,71 L59.8296814,70.856 C59.6016814,70.376 59.4816814,69.692 59.4696814,68.804 L59.4696814,68.804 L59.4696814,64.538 C59.4456814,63.542 59.0976814,62.756 58.4256814,62.18 C57.7536814,61.604 56.8356814,61.316 55.6716814,61.316 C54.9036814,61.316 54.2166814,61.448 53.6106814,61.712 C53.0046814,61.976 52.5306814,62.336 52.1886814,62.792 C51.8466814,63.248 51.6756814,63.752 51.6756814,64.304 L51.6756814,64.304 L54.0876814,64.304 C54.0876814,64.052 54.1476814,63.836 54.2676814,63.656 C54.3876814,63.476 54.5586814,63.335 54.7806814,63.233 C55.0026814,63.131 55.2576814,63.08 55.5456814,63.08 C56.0376814,63.08 56.4096814,63.212 56.6616814,63.476 C56.9136814,63.74 57.0396814,64.118 57.0396814,64.61 L57.0396814,64.61 L57.0396814,65.204 L55.8516814,65.204 C54.4356814,65.204 53.3466814,65.471 52.5846814,66.005 C51.8226814,66.539 51.4416814,67.316 51.4416814,68.336 C51.4416814,68.876 51.5856814,69.359 51.8736814,69.785 C52.1616814,70.211 52.5486814,70.55 53.0346814,70.802 C53.5206814,71.054 54.0636814,71.18 54.6636814,71.18 Z M55.2036814,69.344 C54.8076814,69.344 54.4896814,69.236 54.2496814,69.02 C54.0096814,68.804 53.8896814,68.516 53.8896814,68.156 C53.8896814,67.64 54.0666814,67.256 54.4206814,67.004 C54.7746814,66.752 55.3056814,66.626 56.0136814,66.626 L56.0136814,66.626 L57.0396814,66.626 L57.0396814,68.318 C56.8836814,68.618 56.6376814,68.864 56.3016814,69.056 C55.9656814,69.248 55.5996814,69.344 55.2036814,69.344 Z M64.6716001,71.18 C65.1756001,71.18 65.6736001,71.108 66.1656001,70.964 L66.1656001,70.964 L66.1656001,69.164 C65.9256001,69.212 65.6736001,69.236 65.4096001,69.236 C65.0376001,69.236 64.7796001,69.158 64.6356001,69.002 C64.4916001,68.846 64.4196001,68.576 64.4196001,68.192 L64.4196001,68.192 L64.4196001,63.224 L66.0756001,63.224 L66.0756001,61.496 L64.4196001,61.496 L64.4196001,59.156 L61.9896001,59.156 L61.9896001,61.496 L60.5676001,61.496 L60.5676001,63.224 L61.9896001,63.224 L61.9896001,68.408 C61.9896001,69.332 62.2116001,70.025 62.6556001,70.487 C63.0996001,70.949 63.7716001,71.18 64.6716001,71.18 Z M72.6994089,74.834 C73.3594089,74.834 73.9234089,74.678 74.3914089,74.366 C74.8594089,74.054 75.2314089,73.58 75.5074089,72.944 L75.5074089,72.944 L75.6694089,72.548 L79.5214089,61.496 L76.9294089,61.496 L75.2014089,67.166 L75.0934089,67.562 L73.2394089,61.496 L70.6294089,61.496 L73.9774089,71.018 L73.6714089,71.774 C73.5274089,72.194 73.3294089,72.491 73.0774089,72.665 C72.8254089,72.839 72.4654089,72.914 71.9974089,72.89 C71.8654089,72.89 71.7334089,72.884 71.6014089,72.872 L71.6014089,72.872 L71.6014089,74.69 C71.9854089,74.774 72.3514089,74.822 72.6994089,74.834 Z M84.5434089,71.18 C85.4194089,71.18 86.1964089,70.982 86.8744089,70.586 C87.5524089,70.19 88.0774089,69.629 88.4494089,68.903 C88.8214089,68.177 89.0074089,67.322 89.0074089,66.338 L89.0074089,66.338 L89.0074089,66.23 C89.0074089,65.234 88.8244089,64.367 88.4584089,63.629 C88.0924089,62.891 87.5704089,62.321 86.8924089,61.919 C86.2144089,61.517 85.4254089,61.316 84.5254089,61.316 C83.5654089,61.316 82.7464089,61.532 82.0684089,61.964 C81.3904089,62.396 80.8774089,62.981 80.5294089,63.719 C80.1814089,64.457 80.0194089,65.27 80.0434089,66.158 L80.0434089,66.158 L80.0434089,66.5 C80.0674089,67.448 80.2684089,68.273 80.6464089,68.975 C81.0244089,69.677 81.5464089,70.22 82.2124089,70.604 C82.8784089,70.988 83.6554089,71.18 84.5434089,71.18 Z M84.5434089,69.272 C84.1114089,69.272 83.7394089,69.158 83.4274089,68.93 C83.1154089,68.702 82.8784089,68.369 82.7164089,67.931 C82.5544089,67.493 82.4734089,66.962 82.4734089,66.338 L82.4734089,66.338 L82.4734089,65.96 C82.4974089,65.372 82.5934089,64.871 82.7614089,64.457 C82.9294089,64.043 83.1634089,63.734 83.4634089,63.53 C83.7634089,63.326 84.1174089,63.224 84.5254089,63.224 C84.9574089,63.224 85.3294089,63.338 85.6414089,63.566 C85.9534089,63.794 86.1904089,64.127 86.3524089,64.565 C86.5144089,65.003 86.5954089,65.534 86.5954089,66.158 L86.5954089,66.158 L86.5954089,66.392 C86.5954089,67.016 86.5114089,67.541 86.3434089,67.967 C86.1754089,68.393 85.9414089,68.717 85.6414089,68.939 C85.3414089,69.161 84.9754089,69.272 84.5434089,69.272 Z M93.7231782,71.18 C94.2871782,71.18 94.7911782,71.084 95.2351782,70.892 C95.6791782,70.7 96.0571782,70.406 96.3691782,70.01 L96.3691782,70.01 L96.4231782,71 L98.7091782,71 L98.7091782,61.496 L96.2611782,61.496 L96.2611782,68.264 C96.1051782,68.588 95.8711782,68.834 95.5591782,69.002 C95.2471782,69.17 94.8631782,69.254 94.4071782,69.254 C93.9391782,69.254 93.5881782,69.122 93.3541782,68.858 C93.1201782,68.594 93.0031782,68.192 93.0031782,67.652 L93.0031782,67.652 L93.0031782,61.496 L90.5551782,61.496 L90.5551782,67.652 C90.5671782,68.816 90.8401782,69.695 91.3741782,70.289 C91.9081782,70.883 92.6911782,71.18 93.7231782,71.18 Z M108.464989,71 L110.048989,65.618 L110.300989,64.736 L110.570989,65.618 L112.172989,71 L114.206989,71 L116.654989,61.496 L114.314989,61.496 L113.198989,66.644 L113.000989,67.76 L111.200989,61.496 L109.436989,61.496 L107.654989,67.778 L107.420989,66.644 L106.322989,61.496 L103.982989,61.496 L106.430989,71 L108.464989,71 Z M121.928853,71.18 C122.804853,71.18 123.581853,70.982 124.259853,70.586 C124.937853,70.19 125.462853,69.629 125.834853,68.903 C126.206853,68.177 126.392853,67.322 126.392853,66.338 L126.392853,66.338 L126.392853,66.23 C126.392853,65.234 126.209853,64.367 125.843853,63.629 C125.477853,62.891 124.955853,62.321 124.277853,61.919 C123.599853,61.517 122.810853,61.316 121.910853,61.316 C120.950853,61.316 120.131853,61.532 119.453853,61.964 C118.775853,62.396 118.262853,62.981 117.914853,63.719 C117.566853,64.457 117.404853,65.27 117.428853,66.158 L117.428853,66.158 L117.428853,66.5 C117.452853,67.448 117.653853,68.273 118.031853,68.975 C118.409853,69.677 118.931853,70.22 119.597853,70.604 C120.263853,70.988 121.040853,71.18 121.928853,71.18 Z M121.928853,69.272 C121.496853,69.272 121.124853,69.158 120.812853,68.93 C120.500853,68.702 120.263853,68.369 120.101853,67.931 C119.939853,67.493 119.858853,66.962 119.858853,66.338 L119.858853,66.338 L119.858853,65.96 C119.882853,65.372 119.978853,64.871 120.146853,64.457 C120.314853,64.043 120.548853,63.734 120.848853,63.53 C121.148853,63.326 121.502853,63.224 121.910853,63.224 C122.342853,63.224 122.714853,63.338 123.026853,63.566 C123.338853,63.794 123.575853,64.127 123.737853,64.565 C123.899853,65.003 123.980853,65.534 123.980853,66.158 L123.980853,66.158 L123.980853,66.392 C123.980853,67.016 123.896853,67.541 123.728853,67.967 C123.560853,68.393 123.326853,68.717 123.026853,68.939 C122.726853,69.161 122.360853,69.272 121.928853,69.272 Z M131.108622,71.18 C131.672622,71.18 132.176622,71.084 132.620622,70.892 C133.064622,70.7 133.442622,70.406 133.754622,70.01 L133.754622,70.01 L133.808622,71 L136.094622,71 L136.094622,61.496 L133.646622,61.496 L133.646622,68.264 C133.490622,68.588 133.256622,68.834 132.944622,69.002 C132.632622,69.17 132.248622,69.254 131.792622,69.254 C131.324622,69.254 130.973622,69.122 130.739622,68.858 C130.505622,68.594 130.388622,68.192 130.388622,67.652 L130.388622,67.652 L130.388622,61.496 L127.940622,61.496 L127.940622,67.652 C127.952622,68.816 128.225622,69.695 128.759622,70.289 C129.293622,70.883 130.076622,71.18 131.108622,71.18 Z M140.648451,71 L140.648451,57.5 L138.200451,57.5 L138.200451,71 L140.648451,71 Z M146.102332,71.18 C146.618332,71.18 147.083332,71.081 147.497332,70.883 C147.911332,70.685 148.268332,70.382 148.568332,69.974 L148.568332,69.974 L148.694332,71 L150.890332,71 L150.890332,57.5 L148.460332,57.5 L148.460332,62.378 C148.160332,62.018 147.812332,61.751 147.416332,61.577 C147.020332,61.403 146.588332,61.316 146.120332,61.316 C145.364332,61.316 144.704332,61.514 144.140332,61.91 C143.576332,62.306 143.141332,62.867 142.835332,63.593 C142.529332,64.319 142.376332,65.18 142.376332,66.176 C142.376332,67.196 142.532332,68.084 142.844332,68.84 C143.156332,69.596 143.591332,70.175 144.149332,70.577 C144.707332,70.979 145.358332,71.18 146.102332,71.18 Z M146.714332,69.254 C146.102332,69.254 145.634332,69.008 145.310332,68.516 C144.986332,68.024 144.824332,67.304 144.824332,66.356 L144.824332,66.356 L144.824332,65.924 C144.848332,65.048 145.025332,64.382 145.355332,63.926 C145.685332,63.47 146.144332,63.242 146.732332,63.242 C147.524332,63.242 148.100332,63.59 148.460332,64.286 L148.460332,64.286 L148.460332,68.21 C148.280332,68.558 148.046332,68.819 147.758332,68.993 C147.470332,69.167 147.122332,69.254 146.714332,69.254 Z M159.530104,71 L159.530104,57.5 L157.082104,57.5 L157.082104,71 L159.530104,71 Z M163.021985,60.254 C163.429985,60.254 163.759985,60.137 164.011985,59.903 C164.263985,59.669 164.389985,59.372 164.389985,59.012 C164.389985,58.652 164.263985,58.355 164.011985,58.121 C163.759985,57.887 163.429985,57.77 163.021985,57.77 C162.601985,57.77 162.268985,57.887 162.022985,58.121 C161.776985,58.355 161.653985,58.652 161.653985,59.012 C161.653985,59.384 161.776985,59.684 162.022985,59.912 C162.268985,60.14 162.601985,60.254 163.021985,60.254 Z M164.245985,71 L164.245985,61.496 L161.797985,61.496 L161.797985,71 L164.245985,71 Z M168.817866,71 L168.817866,68.048 L169.717866,67.112 L172.291866,71 L175.099866,71 L171.301866,65.42 L174.793866,61.496 L171.877866,61.496 L169.357866,64.412 L168.817866,65.06 L168.817866,57.5 L166.387866,57.5 L166.387866,71 L168.817866,71 Z M180.085697,71.18 C180.877697,71.18 181.594697,71.027 182.236697,70.721 C182.878697,70.415 183.391697,69.986 183.775697,69.434 L183.775697,69.434 L182.569697,68.174 C182.281697,68.534 181.945697,68.807 181.561697,68.993 C181.177697,69.179 180.739697,69.272 180.247697,69.272 C179.803697,69.272 179.413697,69.179 179.077697,68.993 C178.741697,68.807 178.468697,68.546 178.258697,68.21 C178.048697,67.874 177.919697,67.478 177.871697,67.022 L177.871697,67.022 L177.871697,67.004 L183.973697,67.004 L183.973697,66.032 C183.973697,65.048 183.805697,64.202 183.469697,63.494 C183.133697,62.786 182.653697,62.246 182.029697,61.874 C181.405697,61.502 180.667697,61.316 179.815697,61.316 C178.903697,61.316 178.114697,61.529 177.448697,61.955 C176.782697,62.381 176.275697,62.963 175.927697,63.701 C175.579697,64.439 175.405697,65.282 175.405697,66.23 L175.405697,66.23 L175.405697,66.482 C175.405697,67.418 175.600697,68.24 175.990697,68.948 C176.380697,69.656 176.929697,70.205 177.637697,70.595 C178.345697,70.985 179.161697,71.18 180.085697,71.18 Z M181.579697,65.348 L177.889697,65.348 C177.937697,64.892 178.048697,64.505 178.222697,64.187 C178.396697,63.869 178.615697,63.629 178.879697,63.467 C179.143697,63.305 179.449697,63.224 179.797697,63.224 C180.169697,63.224 180.487697,63.299 180.751697,63.449 C181.015697,63.599 181.216697,63.821 181.354697,64.115 C181.492697,64.409 181.567697,64.76 181.579697,65.168 L181.579697,65.168 L181.579697,65.348 Z M192.667579,71.18 C193.171579,71.18 193.669579,71.108 194.161579,70.964 L194.161579,70.964 L194.161579,69.164 C193.921579,69.212 193.669579,69.236 193.405579,69.236 C193.033579,69.236 192.775579,69.158 192.631579,69.002 C192.487579,68.846 192.415579,68.576 192.415579,68.192 L192.415579,68.192 L192.415579,63.224 L194.071579,63.224 L194.071579,61.496 L192.415579,61.496 L192.415579,59.156 L189.985579,59.156 L189.985579,61.496 L188.563579,61.496 L188.563579,63.224 L189.985579,63.224 L189.985579,68.408 C189.985579,69.332 190.207579,70.025 190.651579,70.487 C191.095579,70.949 191.767579,71.18 192.667579,71.18 Z M199.399405,71.18 C200.275405,71.18 201.052405,70.982 201.730405,70.586 C202.408405,70.19 202.933405,69.629 203.305405,68.903 C203.677405,68.177 203.863405,67.322 203.863405,66.338 L203.863405,66.338 L203.863405,66.23 C203.863405,65.234 203.680405,64.367 203.314405,63.629 C202.948405,62.891 202.426405,62.321 201.748405,61.919 C201.070405,61.517 200.281405,61.316 199.381405,61.316 C198.421405,61.316 197.602405,61.532 196.924405,61.964 C196.246405,62.396 195.733405,62.981 195.385405,63.719 C195.037405,64.457 194.875405,65.27 194.899405,66.158 L194.899405,66.158 L194.899405,66.5 C194.923405,67.448 195.124405,68.273 195.502405,68.975 C195.880405,69.677 196.402405,70.22 197.068405,70.604 C197.734405,70.988 198.511405,71.18 199.399405,71.18 Z M199.399405,69.272 C198.967405,69.272 198.595405,69.158 198.283405,68.93 C197.971405,68.702 197.734405,68.369 197.572405,67.931 C197.410405,67.493 197.329405,66.962 197.329405,66.338 L197.329405,66.338 L197.329405,65.96 C197.353405,65.372 197.449405,64.871 197.617405,64.457 C197.785405,64.043 198.019405,63.734 198.319405,63.53 C198.619405,63.326 198.973405,63.224 199.381405,63.224 C199.813405,63.224 200.185405,63.338 200.497405,63.566 C200.809405,63.794 201.046405,64.127 201.208405,64.565 C201.370405,65.003 201.451405,65.534 201.451405,66.158 L201.451405,66.158 L201.451405,66.392 C201.451405,67.016 201.367405,67.541 201.199405,67.967 C201.031405,68.393 200.797405,68.717 200.497405,68.939 C200.197405,69.161 199.831405,69.272 199.399405,69.272 Z M214.339157,71.18 C215.083157,71.18 215.734157,70.985 216.292157,70.595 C216.850157,70.205 217.279157,69.647 217.579157,68.921 C217.879157,68.195 218.029157,67.334 218.029157,66.338 L218.029157,66.338 L218.029157,66.194 C218.029157,64.658 217.702157,63.461 217.048157,62.603 C216.394157,61.745 215.485157,61.316 214.321157,61.316 C213.817157,61.316 213.367157,61.403 212.971157,61.577 C212.575157,61.751 212.233157,62.012 211.945157,62.36 L211.945157,62.36 L211.945157,57.5 L209.497157,57.5 L209.497157,71 L211.693157,71 L211.819157,69.974 C212.119157,70.37 212.479157,70.67 212.899157,70.874 C213.319157,71.078 213.799157,71.18 214.339157,71.18 Z M213.709157,69.254 C213.301157,69.254 212.947157,69.167 212.647157,68.993 C212.347157,68.819 212.113157,68.558 211.945157,68.21 L211.945157,68.21 L211.945157,64.286 C212.113157,63.962 212.353157,63.707 212.665157,63.521 C212.977157,63.335 213.319157,63.242 213.691157,63.242 C214.327157,63.242 214.801157,63.482 215.113157,63.962 C215.425157,64.442 215.581157,65.168 215.581157,66.14 C215.581157,67.208 215.434157,67.994 215.140157,68.498 C214.846157,69.002 214.369157,69.254 213.709157,69.254 Z M223.951093,71.18 C224.743093,71.18 225.460093,71.027 226.102093,70.721 C226.744093,70.415 227.257093,69.986 227.641093,69.434 L227.641093,69.434 L226.435093,68.174 C226.147093,68.534 225.811093,68.807 225.427093,68.993 C225.043093,69.179 224.605093,69.272 224.113093,69.272 C223.669093,69.272 223.279093,69.179 222.943093,68.993 C222.607093,68.807 222.334093,68.546 222.124093,68.21 C221.914093,67.874 221.785093,67.478 221.737093,67.022 L221.737093,67.022 L221.737093,67.004 L227.839093,67.004 L227.839093,66.032 C227.839093,65.048 227.671093,64.202 227.335093,63.494 C226.999093,62.786 226.519093,62.246 225.895093,61.874 C225.271093,61.502 224.533093,61.316 223.681093,61.316 C222.769093,61.316 221.980093,61.529 221.314093,61.955 C220.648093,62.381 220.141093,62.963 219.793093,63.701 C219.445093,64.439 219.271093,65.282 219.271093,66.23 L219.271093,66.23 L219.271093,66.482 C219.271093,67.418 219.466093,68.24 219.856093,68.948 C220.246093,69.656 220.795093,70.205 221.503093,70.595 C222.211093,70.985 223.027093,71.18 223.951093,71.18 Z M225.445093,65.348 L221.755093,65.348 C221.803093,64.892 221.914093,64.505 222.088093,64.187 C222.262093,63.869 222.481093,63.629 222.745093,63.467 C223.009093,63.305 223.315093,63.224 223.663093,63.224 C224.035093,63.224 224.353093,63.299 224.617093,63.449 C224.881093,63.599 225.082093,63.821 225.220093,64.115 C225.358093,64.409 225.433093,64.76 225.445093,65.168 L225.445093,65.168 L225.445093,65.348 Z M29.752,98 L31.336,92.618 L31.588,91.736 L31.858,92.618 L33.46,98 L35.494,98 L37.942,88.496 L35.602,88.496 L34.486,93.644 L34.288,94.76 L32.488,88.496 L30.724,88.496 L28.942,94.778 L28.708,93.644 L27.61,88.496 L25.27,88.496 L27.718,98 L29.752,98 Z M41.6318638,98 L41.6318638,91.196 C41.7998638,90.896 42.0278638,90.662 42.3158638,90.494 C42.6038638,90.326 42.9458638,90.242 43.3418638,90.242 C43.8938638,90.242 44.2928638,90.374 44.5388638,90.638 C44.7848638,90.902 44.9078638,91.328 44.9078638,91.916 L44.9078638,91.916 L44.9078638,98 L47.3378638,98 L47.3378638,91.898 C47.3258638,90.71 47.0588638,89.816 46.5368638,89.216 C46.0148638,88.616 45.2378638,88.316 44.2058638,88.316 C43.6778638,88.316 43.1978638,88.421 42.7658638,88.631 C42.3338638,88.841 41.9558638,89.15 41.6318638,89.558 L41.6318638,89.558 L41.6318638,84.5 L39.1838638,84.5 L39.1838638,98 L41.6318638,98 Z M53.6376924,98.18 C54.4296924,98.18 55.1466924,98.027 55.7886924,97.721 C56.4306924,97.415 56.9436924,96.986 57.3276924,96.434 L57.3276924,96.434 L56.1216924,95.174 C55.8336924,95.534 55.4976924,95.807 55.1136924,95.993 C54.7296924,96.179 54.2916924,96.272 53.7996924,96.272 C53.3556924,96.272 52.9656924,96.179 52.6296924,95.993 C52.2936924,95.807 52.0206924,95.546 51.8106924,95.21 C51.6006924,94.874 51.4716924,94.478 51.4236924,94.022 L51.4236924,94.022 L51.4236924,94.004 L57.5256924,94.004 L57.5256924,93.032 C57.5256924,92.048 57.3576924,91.202 57.0216924,90.494 C56.6856924,89.786 56.2056924,89.246 55.5816924,88.874 C54.9576924,88.502 54.2196924,88.316 53.3676924,88.316 C52.4556924,88.316 51.6666924,88.529 51.0006924,88.955 C50.3346924,89.381 49.8276924,89.963 49.4796924,90.701 C49.1316924,91.439 48.9576924,92.282 48.9576924,93.23 L48.9576924,93.23 L48.9576924,93.482 C48.9576924,94.418 49.1526924,95.24 49.5426924,95.948 C49.9326924,96.656 50.4816924,97.205 51.1896924,97.595 C51.8976924,97.985 52.7136924,98.18 53.6376924,98.18 Z M55.1316924,92.348 L51.4416924,92.348 C51.4896924,91.892 51.6006924,91.505 51.7746924,91.187 C51.9486924,90.869 52.1676924,90.629 52.4316924,90.467 C52.6956924,90.305 53.0016924,90.224 53.3496924,90.224 C53.7216924,90.224 54.0396924,90.299 54.3036924,90.449 C54.5676924,90.599 54.7686924,90.821 54.9066924,91.115 C55.0446924,91.409 55.1196924,91.76 55.1316924,92.168 L55.1316924,92.168 L55.1316924,92.348 Z M61.3775913,98 L61.3775913,91.268 C61.5455913,90.932 61.7765913,90.677 62.0705913,90.503 C62.3645913,90.329 62.7035913,90.242 63.0875913,90.242 C63.6395913,90.242 64.0385913,90.371 64.2845913,90.629 C64.5305913,90.887 64.6535913,91.304 64.6535913,91.88 L64.6535913,91.88 L64.6535913,98 L67.0835913,98 L67.0835913,91.808 C67.0715913,90.644 66.8165913,89.771 66.3185913,89.189 C65.8205913,88.607 65.0735913,88.316 64.0775913,88.316 C63.4895913,88.316 62.9675913,88.427 62.5115913,88.649 C62.0555913,88.871 61.6595913,89.204 61.3235913,89.648 L61.3235913,89.648 L61.2335913,88.496 L58.9475913,88.496 L58.9475913,98 L61.3775913,98 Z M74.2114023,101.834 C74.8714023,101.834 75.4354023,101.678 75.9034023,101.366 C76.3714023,101.054 76.7434023,100.58 77.0194023,99.944 L77.0194023,99.944 L77.1814023,99.548 L81.0334023,88.496 L78.4414023,88.496 L76.7134023,94.166 L76.6054023,94.562 L74.7514023,88.496 L72.1414023,88.496 L75.4894023,98.018 L75.1834023,98.774 C75.0394023,99.194 74.8414023,99.491 74.5894023,99.665 C74.3374023,99.839 73.9774023,99.914 73.5094023,99.89 C73.3774023,99.89 73.2454023,99.884 73.1134023,99.872 L73.1134023,99.872 L73.1134023,101.69 C73.4974023,101.774 73.8634023,101.822 74.2114023,101.834 Z M86.0554023,98.18 C86.9314023,98.18 87.7084023,97.982 88.3864023,97.586 C89.0644023,97.19 89.5894023,96.629 89.9614023,95.903 C90.3334023,95.177 90.5194023,94.322 90.5194023,93.338 L90.5194023,93.338 L90.5194023,93.23 C90.5194023,92.234 90.3364023,91.367 89.9704023,90.629 C89.6044023,89.891 89.0824023,89.321 88.4044023,88.919 C87.7264023,88.517 86.9374023,88.316 86.0374023,88.316 C85.0774023,88.316 84.2584023,88.532 83.5804023,88.964 C82.9024023,89.396 82.3894023,89.981 82.0414023,90.719 C81.6934023,91.457 81.5314023,92.27 81.5554023,93.158 L81.5554023,93.158 L81.5554023,93.5 C81.5794023,94.448 81.7804023,95.273 82.1584023,95.975 C82.5364023,96.677 83.0584023,97.22 83.7244023,97.604 C84.3904023,97.988 85.1674023,98.18 86.0554023,98.18 Z M86.0554023,96.272 C85.6234023,96.272 85.2514023,96.158 84.9394023,95.93 C84.6274023,95.702 84.3904023,95.369 84.2284023,94.931 C84.0664023,94.493 83.9854023,93.962 83.9854023,93.338 L83.9854023,93.338 L83.9854023,92.96 C84.0094023,92.372 84.1054023,91.871 84.2734023,91.457 C84.4414023,91.043 84.6754023,90.734 84.9754023,90.53 C85.2754023,90.326 85.6294023,90.224 86.0374023,90.224 C86.4694023,90.224 86.8414023,90.338 87.1534023,90.566 C87.4654023,90.794 87.7024023,91.127 87.8644023,91.565 C88.0264023,92.003 88.1074023,92.534 88.1074023,93.158 L88.1074023,93.158 L88.1074023,93.392 C88.1074023,94.016 88.0234023,94.541 87.8554023,94.967 C87.6874023,95.393 87.4534023,95.717 87.1534023,95.939 C86.8534023,96.161 86.4874023,96.272 86.0554023,96.272 Z M95.2351716,98.18 C95.7991716,98.18 96.3031716,98.084 96.7471716,97.892 C97.1911716,97.7 97.5691716,97.406 97.8811716,97.01 L97.8811716,97.01 L97.9351716,98 L100.221172,98 L100.221172,88.496 L97.7731716,88.496 L97.7731716,95.264 C97.6171716,95.588 97.3831716,95.834 97.0711716,96.002 C96.7591716,96.17 96.3751716,96.254 95.9191716,96.254 C95.4511716,96.254 95.1001716,96.122 94.8661716,95.858 C94.6321716,95.594 94.5151716,95.192 94.5151716,94.652 L94.5151716,94.652 L94.5151716,88.496 L92.0671716,88.496 L92.0671716,94.652 C92.0791716,95.816 92.3521716,96.695 92.8861716,97.289 C93.4201716,97.883 94.2031716,98.18 95.2351716,98.18 Z M109.958983,101.744 C111.074983,101.744 111.971983,101.519 112.649983,101.069 C113.327983,100.619 113.801983,100.088 114.071983,99.476 C114.341983,98.864 114.476983,98.27 114.476983,97.694 L114.476983,97.694 L114.476983,88.496 L112.262983,88.496 L112.172983,89.414 C111.884983,89.042 111.533983,88.766 111.119983,88.586 C110.705983,88.406 110.228983,88.316 109.688983,88.316 C108.932983,88.316 108.266983,88.511 107.690983,88.901 C107.114983,89.291 106.664983,89.846 106.340983,90.566 C106.016983,91.286 105.854983,92.138 105.854983,93.122 L105.854983,93.122 L105.854983,93.23 C105.854983,94.226 106.013983,95.099 106.331983,95.849 C106.649983,96.599 107.099983,97.175 107.681983,97.577 C108.263983,97.979 108.926983,98.18 109.670983,98.18 C110.162983,98.18 110.603983,98.096 110.993983,97.928 C111.383983,97.76 111.728983,97.508 112.028983,97.172 L112.028983,97.172 L112.028983,97.676 C112.028983,98.396 111.842983,98.945 111.470983,99.323 C111.098983,99.701 110.558983,99.89 109.850983,99.89 C109.382983,99.89 108.953983,99.8 108.563983,99.62 C108.173983,99.44 107.828983,99.164 107.528983,98.792 L107.528983,98.792 L106.430983,100.232 C106.778983,100.688 107.279983,101.054 107.933983,101.33 C108.587983,101.606 109.262983,101.744 109.958983,101.744 Z M110.300983,96.254 C109.664983,96.254 109.169983,95.999 108.815983,95.489 C108.461983,94.979 108.284983,94.268 108.284983,93.356 C108.284983,92.348 108.461983,91.577 108.815983,91.043 C109.169983,90.509 109.670983,90.242 110.318983,90.242 C111.098983,90.242 111.668983,90.554 112.028983,91.178 L112.028983,91.178 L112.028983,95.3 C111.848983,95.624 111.614983,95.864 111.326983,96.02 C111.038983,96.176 110.696983,96.254 110.300983,96.254 Z M118.904712,98 L118.904712,91.7 C119.060712,91.328 119.300712,91.055 119.624712,90.881 C119.948712,90.707 120.356712,90.62 120.848712,90.62 C121.268712,90.62 121.568712,90.644 121.748712,90.692 L121.748712,90.692 L121.784712,88.424 C121.580712,88.352 121.316712,88.316 120.992712,88.316 C120.536712,88.316 120.128712,88.43 119.768712,88.658 C119.408712,88.886 119.096712,89.222 118.832712,89.666 L118.832712,89.666 L118.778712,88.496 L116.456712,88.496 L116.456712,98 L118.904712,98 Z M126.824556,98.18 C127.700556,98.18 128.477556,97.982 129.155556,97.586 C129.833556,97.19 130.358556,96.629 130.730556,95.903 C131.102556,95.177 131.288556,94.322 131.288556,93.338 L131.288556,93.338 L131.288556,93.23 C131.288556,92.234 131.105556,91.367 130.739556,90.629 C130.373556,89.891 129.851556,89.321 129.173556,88.919 C128.495556,88.517 127.706556,88.316 126.806556,88.316 C125.846556,88.316 125.027556,88.532 124.349556,88.964 C123.671556,89.396 123.158556,89.981 122.810556,90.719 C122.462556,91.457 122.300556,92.27 122.324556,93.158 L122.324556,93.158 L122.324556,93.5 C122.348556,94.448 122.549556,95.273 122.927556,95.975 C123.305556,96.677 123.827556,97.22 124.493556,97.604 C125.159556,97.988 125.936556,98.18 126.824556,98.18 Z M126.824556,96.272 C126.392556,96.272 126.020556,96.158 125.708556,95.93 C125.396556,95.702 125.159556,95.369 124.997556,94.931 C124.835556,94.493 124.754556,93.962 124.754556,93.338 L124.754556,93.338 L124.754556,92.96 C124.778556,92.372 124.874556,91.871 125.042556,91.457 C125.210556,91.043 125.444556,90.734 125.744556,90.53 C126.044556,90.326 126.398556,90.224 126.806556,90.224 C127.238556,90.224 127.610556,90.338 127.922556,90.566 C128.234556,90.794 128.471556,91.127 128.633556,91.565 C128.795556,92.003 128.876556,92.534 128.876556,93.158 L128.876556,93.158 L128.876556,93.392 C128.876556,94.016 128.792556,94.541 128.624556,94.967 C128.456556,95.393 128.222556,95.717 127.922556,95.939 C127.622556,96.161 127.256556,96.272 126.824556,96.272 Z M136.652326,98 L138.236326,92.618 L138.488326,91.736 L138.758326,92.618 L140.360326,98 L142.394326,98 L144.842326,88.496 L142.502326,88.496 L141.386326,93.644 L141.188326,94.76 L139.388326,88.496 L137.624326,88.496 L135.842326,94.778 L135.608326,93.644 L134.510326,88.496 L132.170326,88.496 L134.618326,98 L136.652326,98 Z M153.284172,98.18 C153.848172,98.18 154.352172,98.084 154.796172,97.892 C155.240172,97.7 155.618172,97.406 155.930172,97.01 L155.930172,97.01 L155.984172,98 L158.270172,98 L158.270172,88.496 L155.822172,88.496 L155.822172,95.264 C155.666172,95.588 155.432172,95.834 155.120172,96.002 C154.808172,96.17 154.424172,96.254 153.968172,96.254 C153.500172,96.254 153.149172,96.122 152.915172,95.858 C152.681172,95.594 152.564172,95.192 152.564172,94.652 L152.564172,94.652 L152.564172,88.496 L150.116172,88.496 L150.116172,94.652 C150.128172,95.816 150.401172,96.695 150.935172,97.289 C151.469172,97.883 152.252172,98.18 153.284172,98.18 Z M162.68,101.654 L162.68,97.172 C162.98,97.508 163.328,97.76 163.724,97.928 C164.12,98.096 164.564,98.18 165.056,98.18 C165.8,98.18 166.451,97.979 167.009,97.577 C167.567,97.175 167.996,96.608 168.296,95.876 C168.596,95.144 168.746,94.298 168.746,93.338 L168.746,93.338 L168.746,93.176 C168.746,91.664 168.419,90.476 167.765,89.612 C167.111,88.748 166.202,88.316 165.038,88.316 C164.522,88.316 164.06,88.412 163.652,88.604 C163.244,88.796 162.89,89.078 162.59,89.45 L162.59,89.45 L162.5,88.496 L160.232,88.496 L160.232,101.654 L162.68,101.654 Z M164.426,96.272 C164.018,96.272 163.667,96.191 163.373,96.029 C163.079,95.867 162.848,95.618 162.68,95.282 L162.68,95.282 L162.68,91.214 C162.848,90.89 163.076,90.647 163.364,90.485 C163.652,90.323 164,90.242 164.408,90.242 C165.02,90.242 165.491,90.491 165.821,90.989 C166.151,91.487 166.316,92.204 166.316,93.14 L166.316,93.14 L166.316,93.374 C166.304,94.334 166.136,95.057 165.812,95.543 C165.488,96.029 165.026,96.272 164.426,96.272 Z" id="ThetopicfortodayisWhatyouwouldliketobewhenyougrowup" fill="#353535" fill-rule="nonzero"></path>
            </g>
        </g>
    </g>
</svg>