<svg xmlns="http://www.w3.org/2000/svg" width="44.7" height="32.11" viewBox="0 0 44.7 32.11"><defs><style>.a{fill:#3b8ae5;}</style></defs><path class="a" d="M321.37,577.43a13.37,13.37,0,0,0,3.52-.39,8.15,8.15,0,0,0,2.46-1.12l-4.56-3.82-.35,0a2.55,2.55,0,0,1-.4,0c-.24,0-.53,0-.85,0L320.1,572q-.6-.06-1.23-.06a2.91,2.91,0,0,0-2,.61,2,2,0,0,0-.72,1.6,2.76,2.76,0,0,0,1.41,2.4A6.92,6.92,0,0,0,321.37,577.43Zm25.82-15a1.17,1.17,0,0,1-.87-.38,1.23,1.23,0,0,1-.36-.89,1.28,1.28,0,0,1,.37-.91,1.14,1.14,0,0,1,.88-.4,1.23,1.23,0,0,1,1.26,1.23,1.37,1.37,0,0,1-.36.94A1.2,1.2,0,0,1,347.19,562.45Zm-7,13.79a4.06,4.06,0,0,0,2.49-.65,2.14,2.14,0,0,0,.87-1.81,3.37,3.37,0,0,0-.89-2.29,5.63,5.63,0,0,0-2.5-1.57,11.61,11.61,0,0,0-3.85-.57c-.75,0-1.38,0-1.88.08s-1,.12-1.36.2l-1.23.27-1.62-3.67a12.29,12.29,0,0,0-2-3.05,8.37,8.37,0,0,0-2.6-2,7.6,7.6,0,0,0-3.27-.69H320.6a1.12,1.12,0,0,1-.73-.22.77.77,0,0,1-.29-.66,1,1,0,0,1,.81-1,6.44,6.44,0,0,1,1.83-.24,9.48,9.48,0,0,1,5.75,1.8,12.26,12.26,0,0,1,4,5.42l1,2.41a15,15,0,0,1,1.56-.22c.53-.05,1.07-.08,1.62-.08s.86,0,1.27,0,.83.07,1.27.14c.45-.32.94-.64,1.48-1a14.88,14.88,0,0,1,1.88-1,12.73,12.73,0,0,0,1.73,1,11.3,11.3,0,0,0,1.9.68,8.89,8.89,0,0,0,2.07.25,11.38,11.38,0,0,0,3.27-.4,3.29,3.29,0,0,0,1.91-1.45,5.94,5.94,0,0,0,.62-3,8.91,8.91,0,0,0-.58-3.24,8.22,8.22,0,0,0-1.66-2.63,7.43,7.43,0,0,0-2.53-1.74,7.84,7.84,0,0,0-3.2-.61l-3.89-5.25a11.43,11.43,0,0,0-3.59-3.25,8.27,8.27,0,0,0-3.94-1.06,8.17,8.17,0,0,0-1.76.21,8.78,8.78,0,0,0-1.79.61,4.6,4.6,0,0,0-1.39,1,1.66,1.66,0,0,0-.54,1.2,2,2,0,0,0,.68,1.29A11.64,11.64,0,0,0,331,551q1,.72,1.92,1.29l8.46,5.24a6.08,6.08,0,0,1-1,.71,2.07,2.07,0,0,1-1,.25,4.18,4.18,0,0,1-1.88-.49c-.66-.33-1.42-.75-2.3-1.26l-3.28-1.93q-1.55-.93-3.06-1.65a16.39,16.39,0,0,0-3.11-1.14,13.23,13.23,0,0,0-3.39-.42,10.86,10.86,0,0,0-4.53.93,10,10,0,0,0-3.63,2.78,14.87,14.87,0,0,0-2.57,4.67,2.89,2.89,0,0,0-2,.7,2.34,2.34,0,0,0-.8,1.86,2.48,2.48,0,0,0,.91,2,3.61,3.61,0,0,0,2.32.76,9.29,9.29,0,0,0,2.59,2.53,10.39,10.39,0,0,0,3.34,1.41,17.48,17.48,0,0,0,4,.44h.69l6,5a6,6,0,0,0,1.91,1.28,5,5,0,0,0,1.67.28,5.59,5.59,0,0,0,1.61-.25,8.7,8.7,0,0,1,2.31-.25,8.27,8.27,0,0,1,1.58.13l1.13.25A5.73,5.73,0,0,0,340.15,576.24Z" transform="translate(-308.82 -545.32)"/></svg>