<svg xmlns="http://www.w3.org/2000/svg" width="49.28" height="24.52" viewBox="0 0 49.28 24.52"><defs><style>.a{fill:#ffce08;}</style></defs><path class="a" d="M473.69,572.13a4.82,4.82,0,0,0,2.57-.63,2,2,0,0,0,1-1.78,1.86,1.86,0,0,0-.34-1.12,2.57,2.57,0,0,0-.88-.79,3.32,3.32,0,0,0-1.18-.36l-1.23-.07-1.24-.08a7.2,7.2,0,0,0-1.81.37,14,14,0,0,0-1.81.74c-.59.29-1.13.59-1.63.9a5.8,5.8,0,0,0,1.68,1.49,9.32,9.32,0,0,0,2.3,1A9.73,9.73,0,0,0,473.69,572.13Zm-27.05,0a9.45,9.45,0,0,0,3.75-.76,6.55,6.55,0,0,0,2.75-2,17.85,17.85,0,0,0-2.5-1.33,8.43,8.43,0,0,0-2.73-.71,9.25,9.25,0,0,1-1.21.23c-.42,0-.86.13-1.31.22a4.63,4.63,0,0,0-1.62.62,1.46,1.46,0,0,0-.7,1.33,2,2,0,0,0,1,1.78A4.77,4.77,0,0,0,446.64,572.08Zm13.68-2.45a9.73,9.73,0,0,0,3.09-.47,15.66,15.66,0,0,0,2.55-1.1c.77-.43,1.49-.8,2.15-1.12a12.48,12.48,0,0,1-2-2.47,13,13,0,0,1-1.39-2.89,11.71,11.71,0,0,1-.63-3,14.28,14.28,0,0,1-1.82.36,16.34,16.34,0,0,1-1.87.11,12.48,12.48,0,0,1-1.83-.1,17,17,0,0,1-1.78-.33,12.12,12.12,0,0,1-.65,2.93,15.61,15.61,0,0,1-1.39,2.92,13.23,13.23,0,0,1-2,2.55,17,17,0,0,1,2.09,1,15.86,15.86,0,0,0,2.49,1.12A8.93,8.93,0,0,0,460.32,569.63Zm25-12.5a1.35,1.35,0,0,1-1-.41,1.34,1.34,0,0,1-.4-1,1.31,1.31,0,0,1,.4-1,1.35,1.35,0,0,1,1-.41,1.4,1.4,0,0,1,1.36,1.38,1.34,1.34,0,0,1-.41,1A1.31,1.31,0,0,1,485.32,557.13Zm-34.61,9.12a14.66,14.66,0,0,0,2-2.46,15.2,15.2,0,0,0,1.54-2.89,10.45,10.45,0,0,0,.74-2.85,18.81,18.81,0,0,1-3.12-1.55,11.92,11.92,0,0,1-2.73-2.19c-.36.55-.71,1.11-1.06,1.69s-.69,1.2-1,1.86a14.38,14.38,0,0,1-1.38,2.23,14.65,14.65,0,0,1-1.35,1.54l-1.13,1.11a2.88,2.88,0,0,0-.55.68,1.63,1.63,0,0,0-.2.82,1.14,1.14,0,0,0,.68,1,4.13,4.13,0,0,0,1.91.36h1.77a11.93,11.93,0,0,1,2.11.17A16.58,16.58,0,0,1,450.71,566.25Zm19.17-.06a17.8,17.8,0,0,1,2-.42,16.45,16.45,0,0,1,2.25-.19,14.17,14.17,0,0,0,1.9-.16,4.35,4.35,0,0,0,1.38-.42c-.38-.55-.82-1.31-1.34-2.26s-1.05-2-1.61-3.09-1.09-2.14-1.61-3.12-1-1.76-1.33-2.36a15.47,15.47,0,0,1-1.79,1.55,19.31,19.31,0,0,1-2,1.34,13.91,13.91,0,0,1-1.91.94,11.86,11.86,0,0,0,.66,2.84,14.37,14.37,0,0,0,1.41,2.83A14.1,14.1,0,0,0,469.88,566.19Zm9.05-1.84a11.88,11.88,0,0,0,1.83-.89,12.58,12.58,0,0,1,1.95-.93,7.3,7.3,0,0,1,2.57-.4,12.4,12.4,0,0,0,3.43-.43,5.23,5.23,0,0,0,2.26-1.23,2.61,2.61,0,0,0,.8-1.91,11.06,11.06,0,0,0-.84-4.46,7,7,0,0,0-2.38-3A6,6,0,0,0,485,550a6.53,6.53,0,0,0-3.05.67,5.9,5.9,0,0,0-2.16,1.91,8.86,8.86,0,0,0-1.31,2.9,9.3,9.3,0,0,1-.7,1.78,5.13,5.13,0,0,1-.85,1.18,5.63,5.63,0,0,1-1,.79c.36.57.81,1.34,1.35,2.3S478.36,563.44,478.93,564.35Zm-18.6-7.3a14,14,0,0,0,5.59-1.09,12.94,12.94,0,0,0,4.54-3.3,15.52,15.52,0,0,0-2.85-2.83,10.83,10.83,0,0,0-3.22-1.66,14.68,14.68,0,0,0-7.89,0,10,10,0,0,0-3.27,1.65,15,15,0,0,0-2.91,2.94A12.72,12.72,0,0,0,454.9,556,13.9,13.9,0,0,0,460.33,557.05Z" transform="translate(-442.49 -547.61)"/></svg>