<svg xmlns="http://www.w3.org/2000/svg" xmlns:xlink="http://www.w3.org/1999/xlink" width="80" height="80" viewBox="0 0 80 80"><defs><style>.a{fill:url(#a);}.b{fill:#fff;}</style><linearGradient id="a" x1="40" y1="1.1" x2="40" y2="79.96" gradientUnits="userSpaceOnUse"><stop offset="0" stop-color="#6dbef4"/><stop offset="1" stop-color="#3b8ae5"/></linearGradient></defs><rect class="a" width="80" height="80" rx="18"/><path class="b" d="M55.11,55.13a12.29,12.29,0,0,0,4.6-3,12.72,12.72,0,0,0,3-4.92,16.65,16.65,0,0,0,.78-6,22.88,22.88,0,0,0-1.37-6.61A28.42,28.42,0,0,0,58.71,28l-2.66,2.63a23.83,23.83,0,0,1,3.24,7,15.54,15.54,0,0,1,.48,6.63,9.76,9.76,0,0,1-7.11,7.94,11.58,11.58,0,0,1-5.18.11,18.15,18.15,0,0,1-5.29-1.95,22.18,22.18,0,0,1-4.74-3.5l-4,1.66a24.63,24.63,0,0,0,4.88,4A25,25,0,0,0,43.94,55a20,20,0,0,0,5.74,1A15,15,0,0,0,55.11,55.13ZM32.46,47l4.67-1.89L57.5,23.8,53.82,20,33.49,41.23,31.56,46a.72.72,0,0,0,.9,1ZM59,22l1.82-1.82a2.3,2.3,0,0,0,.69-1.56,2.08,2.08,0,0,0-.64-1.54l-.6-.55A1.94,1.94,0,0,0,58.8,16a2.39,2.39,0,0,0-1.51.67L55.5,18.48ZM45.67,64.62a1.68,1.68,0,0,0,.66-1.26A1.77,1.77,0,0,0,46,62.07a2,2,0,0,0-1.39-.75c-.89-.15-2-.38-3.29-.69a34,34,0,0,1-4.22-1.36A28.52,28.52,0,0,1,32.48,57a22.3,22.3,0,0,1-4.37-3.51A27.39,27.39,0,0,1,22.78,46a25.7,25.7,0,0,1-2.44-8.29,20.82,20.82,0,0,1,.6-8,15.07,15.07,0,0,1,3.83-6.57,14.11,14.11,0,0,1,5.06-3.28,17.51,17.51,0,0,1,5.94-1.09,23.3,23.3,0,0,1,6.18.76,25.34,25.34,0,0,1,5.82,2.28L50.5,19.1A28.47,28.47,0,0,0,43.26,16a27.26,27.26,0,0,0-7.66-1,21.29,21.29,0,0,0-7.29,1.42,17.67,17.67,0,0,0-6.17,4.06,19,19,0,0,0-3.94,6,22,22,0,0,0-1.65,7.16,26.9,26.9,0,0,0,.66,7.73,30.12,30.12,0,0,0,3,7.71,31.19,31.19,0,0,0,5.31,7,28,28,0,0,0,5,4.08,32.43,32.43,0,0,0,5.17,2.64,34.63,34.63,0,0,0,4.72,1.5,29.56,29.56,0,0,0,3.66.66A2,2,0,0,0,45.67,64.62Z"/></svg>