<svg xmlns="http://www.w3.org/2000/svg" xmlns:xlink="http://www.w3.org/1999/xlink" width="80" height="80" viewBox="0 0 80 80"><defs><style>.a{fill:url(#a);}.b{fill:#fff;}</style><linearGradient id="a" x1="40" y1="1.1" x2="40" y2="79.96" gradientUnits="userSpaceOnUse"><stop offset="0" stop-color="#6dbef4"/><stop offset="1" stop-color="#3b8ae5"/></linearGradient></defs><rect class="a" width="80" height="80" rx="18"/><path class="b" d="M44.45,63a2.77,2.77,0,0,0,2.1-.93A7.55,7.55,0,0,0,48,59.54L62.4,22a8.79,8.79,0,0,0,.45-1.41,5.46,5.46,0,0,0,.15-1.2,2.36,2.36,0,0,0-.66-1.77A2.44,2.44,0,0,0,60.55,17a5.3,5.3,0,0,0-1.19.15,9.91,9.91,0,0,0-1.39.43L20.28,32a7.06,7.06,0,0,0-2.35,1.4A2.76,2.76,0,0,0,17,35.55a2.5,2.5,0,0,0,1,2.22A9.61,9.61,0,0,0,20.67,39l11.51,3.53a4.53,4.53,0,0,0,1.82.24A2.71,2.71,0,0,0,35.5,42L59.63,19.49a.62.62,0,0,1,.45-.17.8.8,0,0,1,.43.15.58.58,0,0,1,.18.43.68.68,0,0,1-.18.45L38.11,44.54A2.76,2.76,0,0,0,37.34,46a4.36,4.36,0,0,0,.24,1.85L41,59.15A11.6,11.6,0,0,0,42.2,61.9,2.48,2.48,0,0,0,44.45,63Z"/></svg>