<svg xmlns="http://www.w3.org/2000/svg" xmlns:xlink="http://www.w3.org/1999/xlink" width="80" height="80" viewBox="0 0 80 80"><defs><style>.a{fill:url(#a);}.b{fill:#fff;}</style><linearGradient id="a" x1="40" y1="1.1" x2="40" y2="79.96" gradientUnits="userSpaceOnUse"><stop offset="0" stop-color="#ffe913"/><stop offset="1" stop-color="#ffce08"/></linearGradient></defs><rect class="a" width="80" height="80" rx="18"/><path class="b" d="M37,53a3,3,0,0,1-1.38-.32,3.85,3.85,0,0,1-1.17-1l-6.77-8.08A2.64,2.64,0,0,1,27,41.73a2.25,2.25,0,0,1,.69-1.65,2.29,2.29,0,0,1,1.68-.7,2.66,2.66,0,0,1,1.13.24,2.82,2.82,0,0,1,1,.89l5.41,6.76,11.48-18A2.45,2.45,0,0,1,50.51,28a2.76,2.76,0,0,1,1.72.59A1.92,1.92,0,0,1,53,30.18a2.12,2.12,0,0,1-.22.94,6,6,0,0,1-.5.89L39.46,51.64a3,3,0,0,1-1.07,1A2.66,2.66,0,0,1,37,53ZM56.32,65q4.32,0,6.5-2.17T65,56.42V23.58q0-4.24-2.18-6.41T56.32,15H23.68c-2.86,0-5,.72-6.49,2.15S15,20.73,15,23.58V56.42c0,2.85.73,5,2.19,6.43S20.82,65,23.68,65Z"/></svg>