<svg xmlns="http://www.w3.org/2000/svg" xmlns:xlink="http://www.w3.org/1999/xlink" width="80" height="80" viewBox="0 0 80 80"><defs><style>.a{fill:url(#a);}.b{fill:#fff;}</style><linearGradient id="a" x1="40" y1="1.1" x2="40" y2="79.96" gradientUnits="userSpaceOnUse"><stop offset="0" stop-color="#ffe913"/><stop offset="1" stop-color="#ffce08"/></linearGradient></defs><rect class="a" width="80" height="80" rx="18"/><path class="b" d="M55.21,52.12H46.84a1.34,1.34,0,0,1-1-.39,1.24,1.24,0,0,1-.39-.93,1.3,1.3,0,0,1,.39-1,1.35,1.35,0,0,1,1-.4h8.37a1.35,1.35,0,0,1,1.35,1.36,1.24,1.24,0,0,1-.39.93A1.3,1.3,0,0,1,55.21,52.12Zm-15,.35H35.18a2.47,2.47,0,0,1-1.8-.65A2.4,2.4,0,0,1,32.73,50v-5.1a2.48,2.48,0,0,1,.65-1.84,2.43,2.43,0,0,1,1.8-.66h5.08a2.43,2.43,0,0,1,1.8.66,2.48,2.48,0,0,1,.66,1.84V50a2.41,2.41,0,0,1-.66,1.81A2.47,2.47,0,0,1,40.26,52.47Zm15-7.67H46.84a1.37,1.37,0,0,1-1-.38,1.35,1.35,0,0,1,0-1.9,1.34,1.34,0,0,1,1-.39h8.37a1.34,1.34,0,0,1,1,2.29A1.34,1.34,0,0,1,55.21,44.8Zm0-7.23H34.13a1.31,1.31,0,0,1-1-.4,1.28,1.28,0,0,1-.39-.94,1.35,1.35,0,0,1,1.38-1.36h21.1a1.24,1.24,0,0,1,1,.4,1.3,1.3,0,0,1,.38,1,1.27,1.27,0,0,1-.38.94A1.24,1.24,0,0,1,55.23,37.57ZM18.88,59a2.67,2.67,0,0,0,1.29-.31,2.28,2.28,0,0,0,.94-.88,2.56,2.56,0,0,0,.35-1.37V33.78h-.87a5,5,0,0,0-2.28.5,3.68,3.68,0,0,0-1.54,1.46,4.59,4.59,0,0,0-.54,2.31V56.48a2.63,2.63,0,0,0,.36,1.38,2.29,2.29,0,0,0,.95.88A2.93,2.93,0,0,0,18.88,59ZM55.23,30.32H34.13a1.34,1.34,0,0,1-1-.39,1.27,1.27,0,0,1-.39-.95,1.24,1.24,0,0,1,.39-.93,1.34,1.34,0,0,1,1-.39h21.1a1.27,1.27,0,0,1,1,.39,1.23,1.23,0,0,1,.38.93,1.31,1.31,0,0,1-1.33,1.34Zm1.86,32a6.84,6.84,0,0,0,5-1.66,6.66,6.66,0,0,0,1.67-4.94V24.27a6.71,6.71,0,0,0-1.67-4.94,6.8,6.8,0,0,0-5-1.68H32.22a6.8,6.8,0,0,0-5,1.68,6.71,6.71,0,0,0-1.67,4.94V58.14a6,6,0,0,1-.46,2.59,3.82,3.82,0,0,1-1.64,1.62Z"/></svg>