<svg xmlns="http://www.w3.org/2000/svg" xmlns:xlink="http://www.w3.org/1999/xlink" width="80" height="80" viewBox="0 0 80 80"><defs><style>.a{fill:url(#a);}.b{fill:#fff;}</style><linearGradient id="a" x1="40" y1="1.1" x2="40" y2="79.96" gradientUnits="userSpaceOnUse"><stop offset="0" stop-color="#ffe913"/><stop offset="1" stop-color="#ffce08"/></linearGradient></defs><rect class="a" width="80" height="80" rx="18"/><path class="b" d="M37,65V46.27h-.17c-1.93,4.91-6.64,8.53-10.64,9.23a3,3,0,0,1-3.7-3c0-1.64,1.06-2.66,3-3.17A15.19,15.19,0,0,0,33.92,43H14v6.9c0,5.55.81,9,3.59,11.64S24,65,29.77,65Zm13.23,0c5.74,0,9.41-.8,12.18-3.46S66,55.45,66,49.9V43H46.08a15.19,15.19,0,0,0,8.41,6.3c2,.51,3,1.53,3,3.17a3,3,0,0,1-3.72,3c-4-.7-8.69-4.32-10.62-9.23H43V65ZM44.58,38C49.16,38,53,34.62,53,31.65A2.47,2.47,0,0,0,50.29,29C46.94,29,44,33,44,37.33V38ZM36,38v-.67C36,33,33.06,29,29.71,29A2.47,2.47,0,0,0,27,31.65c0,3,3.84,6.35,8.42,6.35Zm-9.42,0a8.42,8.42,0,0,1-4-7.1A6.87,6.87,0,0,1,29.69,24,8.46,8.46,0,0,1,37,28.42V15H29.74c-5.71,0-9.38.83-12.15,3.56S14,24.83,14,30.52V38ZM66,38V30.55c0-5.72-.81-9.28-3.59-12S56,15,50.23,15H43V28.42A8.46,8.46,0,0,1,50.31,24a6.87,6.87,0,0,1,7.12,6.87,8.42,8.42,0,0,1-4,7.1Z"/></svg>